<svg width="64" height="64" viewBox="0 0 64 64" fill="none" xmlns="http://www.w3.org/2000/svg">
<circle cx="32" cy="32" r="32" fill="#0093D0"/>
<g clip-path="url(#clip0_2002_5529)">
<g clip-path="url(#clip1_2002_5529)">
<path d="M24.7716 23.8948C24.7716 23.6894 24.754 23.885 24.7149 23.9691C24.6542 24.104 24.6073 24.2467 24.5526 24.3836C24.3981 24.7786 24.2436 25.1736 24.0891 25.5686C23.9366 25.9577 23.7861 26.3468 23.6335 26.7359C23.1584 27.9522 22.6832 29.1684 22.2081 30.3827C22.1553 30.5177 22.2178 30.6917 22.3156 30.7895C22.2804 30.6565 22.2432 30.5196 22.2081 30.3847C21.201 32.9639 20.194 35.543 19.187 38.1222C18.4889 39.9075 17.7928 41.6947 17.0947 43.48C16.7584 44.3384 16.3771 45.1929 16.0838 46.067C15.6985 47.2128 16.6528 48.2961 17.8456 47.9402C18.0959 47.8659 18.3383 47.7525 18.5808 47.6586C19.9789 47.1131 21.377 46.5656 22.7751 46.02C26.1208 44.7138 29.4665 43.4076 32.8121 42.1014C35.0159 41.241 37.2196 40.3787 39.4253 39.5183C39.6071 39.4479 39.787 39.3776 39.9689 39.3072C40.0588 39.272 40.3189 39.227 40.1038 39.227C40.6396 39.227 40.6415 38.392 40.1038 38.392C39.8848 38.392 39.6345 38.5446 39.439 38.6228C38.9775 38.8027 38.518 38.9826 38.0565 39.1625C37.6048 39.3384 37.1551 39.5144 36.7053 39.6904C35.5595 40.1382 34.4156 40.586 33.2697 41.0318C30.4285 42.1405 27.5873 43.2512 24.7442 44.3599C23.0665 45.015 21.3868 45.67 19.7091 46.327C19.1948 46.5284 18.6805 46.7279 18.1663 46.9293C17.8534 47.0505 17.4369 47.2813 17.1143 47.119C16.3927 46.7553 17.4388 44.88 17.6266 44.401C18.2758 42.7389 18.9249 41.0768 19.5741 39.4147C20.2761 37.6177 20.9781 35.8187 21.6801 34.0217C22.1025 32.9384 22.5737 31.863 22.9511 30.764C22.9687 30.7113 22.9922 30.6585 23.0137 30.6057C23.0665 30.4707 23.0039 30.2967 22.9061 30.1989C22.9413 30.3339 22.9785 30.4688 23.0137 30.6057C23.4947 29.3718 23.9777 28.1399 24.4587 26.9061C24.6171 26.4993 24.7755 26.0926 24.9339 25.6878C25.0923 25.2831 25.2487 24.8783 25.4071 24.4736C25.4736 24.3015 25.6046 24.0864 25.6046 23.8948C25.6046 23.359 24.7696 23.357 24.7696 23.8948H24.7716Z" fill="white"/>
<path d="M40.6061 38.204C39.996 38.7711 38.6624 38.1278 38.068 37.8501C36.5311 37.1325 35.1271 36.1157 33.8248 35.0422C30.9308 32.6546 28.1092 29.7372 26.3708 26.3798C26.0169 25.6954 25.2719 24.3481 25.6904 23.5464C26.058 22.8425 27.3075 23.3294 27.8276 23.5308C29.3235 24.1076 30.6981 25.0736 31.9515 26.0552C33.5862 27.332 35.1017 28.7732 36.488 30.316C37.8177 31.7942 39.0711 33.3898 39.998 35.1556C40.3441 35.8145 41.2807 37.4844 40.6061 38.2079C40.2404 38.601 40.829 39.1915 41.1966 38.7985C41.9455 37.9948 41.5877 36.7355 41.2279 35.838C40.565 34.1837 39.515 32.6957 38.4141 31.3074C36.9045 29.4067 35.1857 27.6586 33.3242 26.1001C31.8889 24.9015 30.3422 23.7459 28.6293 22.9735C27.722 22.5648 26.3904 22.0251 25.442 22.6215C24.5523 23.1788 24.7185 24.4048 24.9884 25.2554C25.5085 26.8999 26.5273 28.3919 27.5617 29.7509C28.9832 31.6202 30.6062 33.339 32.3641 34.8935C33.993 36.3327 35.7782 37.7347 37.7727 38.6342C38.7582 39.0781 40.2659 39.6667 41.1966 38.8004C41.5897 38.4328 40.9991 37.8442 40.6061 38.2099V38.204Z" fill="white"/>
<path d="M33.718 41.0272C31.9288 40.2313 30.3626 38.9818 28.9997 37.5915C28.2586 36.8348 27.5703 36.0213 26.9739 35.1434C26.7373 34.7934 26.5124 34.4355 26.309 34.066C26.1526 33.7824 26.0333 33.3288 25.8065 33.1C25.4272 32.7206 24.8366 33.3092 25.216 33.6905C25.2864 33.7609 25.3724 34.0796 25.4291 34.1891C25.5347 34.3925 25.6462 34.5939 25.7615 34.7914C26.0138 35.2216 26.2914 35.6361 26.5867 36.037C27.185 36.8543 27.8479 37.6228 28.5636 38.3385C29.9343 39.7092 31.5162 40.9568 33.2957 41.7487C33.7825 41.9657 34.2069 41.2462 33.7161 41.0291L33.718 41.0272Z" fill="white"/>
<path d="M22.4718 38.8293C23.7917 40.8531 25.5124 42.611 27.4718 44.0208C27.9078 44.3356 28.3243 43.6121 27.8922 43.3012C26.0541 41.9794 24.4272 40.3075 23.1914 38.4088C22.9 37.9611 22.1765 38.3776 22.4718 38.8293Z" fill="white"/>
<path d="M19.9785 43.8985C20.6023 44.6669 21.2769 45.3865 22.0024 46.0592C22.3954 46.4229 22.9879 45.8343 22.5929 45.4687C21.8675 44.796 21.1928 44.0764 20.5691 43.308C20.2308 42.8915 19.6442 43.4839 19.9785 43.8985Z" fill="white"/>
<path d="M45.8999 17.5859C45.7689 17.9691 45.6398 18.3543 45.5088 18.7376C45.3974 19.0681 45.0943 19.5882 45.1471 19.9499C45.196 20.2961 45.6242 20.6774 45.8236 20.9452C46.0778 21.2855 46.3301 21.6257 46.5843 21.964C46.7036 21.7548 46.8248 21.5455 46.9441 21.3363C46.5198 21.3305 46.0954 21.3246 45.6731 21.3207C45.3387 21.3168 44.7247 21.1858 44.4138 21.3637C44.1146 21.5358 43.8819 22.0559 43.6923 22.3238C43.4361 22.6855 43.1819 23.0473 42.9257 23.4071C43.1799 23.4403 43.4342 23.4736 43.6884 23.5068C43.5632 23.102 43.4361 22.6973 43.311 22.2925C43.2112 21.9699 43.1467 21.3617 42.8925 21.1075C42.65 20.8651 42.0712 20.8025 41.7603 20.7067C41.338 20.5757 40.9156 20.4447 40.4932 20.3117C40.5265 20.5659 40.5597 20.8201 40.593 21.0743C40.9391 20.8299 41.2852 20.5855 41.6313 20.3391C41.9109 20.1416 42.4565 19.8952 42.6363 19.5843C42.8084 19.2871 42.6852 18.7024 42.6813 18.3817C42.6755 17.9398 42.6696 17.4959 42.6637 17.054C42.4545 17.1733 42.2453 17.2945 42.036 17.4138C42.3606 17.6563 42.6852 17.8987 43.0098 18.1412C43.2875 18.3485 43.6903 18.8002 44.0501 18.851C44.3982 18.9019 44.8909 18.6144 45.2096 18.5069C45.6105 18.37 46.0133 18.2351 46.4142 18.0982C46.9206 17.9261 46.7036 17.1205 46.1932 17.2945C45.4599 17.5429 44.7286 17.7912 43.9953 18.0395C44.1029 18.0532 44.2104 18.0669 44.316 18.0825C43.6962 17.6191 43.0763 17.1576 42.4565 16.6942C42.1964 16.5006 41.8249 16.7646 41.8288 17.054C41.8385 17.8264 41.8483 18.6007 41.8581 19.3731C41.9265 19.2538 41.995 19.1326 42.0654 19.0133C41.4338 19.4591 40.8022 19.9069 40.1706 20.3528C39.8812 20.5581 39.9105 21.0039 40.2703 21.1154C41.0095 21.3441 41.7466 21.5749 42.4858 21.8037C42.388 21.7059 42.2922 21.6101 42.1944 21.5123C42.4232 22.2514 42.6539 22.9886 42.8827 23.7278C42.9942 24.0895 43.44 24.1169 43.6453 23.8275L44.9848 21.9327C44.8655 22.0012 44.7443 22.0696 44.625 22.14C45.3974 22.1498 46.1717 22.1595 46.9441 22.1693C47.2354 22.1732 47.4975 21.8017 47.3039 21.5416C46.8404 20.9218 46.379 20.3019 45.9155 19.6821C45.9292 19.7896 45.9429 19.8972 45.9566 20.0027C46.2049 19.2695 46.4533 18.5382 46.7016 17.8049C46.8737 17.2945 46.0681 17.0775 45.8979 17.5839L45.8999 17.5859Z" fill="white"/>
<path d="M39.9412 23.4679C38.9928 24.4163 38.0445 25.3647 37.0941 26.315C36.7148 26.6943 37.3034 27.2848 37.6847 26.9055C38.633 25.9571 39.5814 25.0088 40.5317 24.0585C40.9111 23.6791 40.3225 23.0886 39.9412 23.4679Z" fill="white"/>
<path d="M36.4906 20.9245C36.2755 21.339 36.0585 21.7536 35.8434 22.1681C35.595 22.6433 36.3146 23.0656 36.5629 22.5885C36.778 22.174 36.9951 21.7594 37.2102 21.3449C37.4585 20.8697 36.7389 20.4473 36.4906 20.9245Z" fill="white"/>
<path d="M38.9448 16.2096C38.4266 17.2069 37.9065 18.2041 37.3883 19.2014C37.1399 19.6765 37.8595 20.0989 38.1079 19.6218C38.626 18.6245 39.1462 17.6273 39.6644 16.63C39.9127 16.1549 39.1931 15.7325 38.9448 16.2096Z" fill="white"/>
<path d="M30.0802 19.4363C30.0294 20.2399 29.9786 21.0455 29.9297 21.8492C29.8964 22.385 30.7294 22.383 30.7646 21.8492C30.8155 21.0455 30.8663 20.2399 30.9152 19.4363C30.9484 18.9005 30.1154 18.9024 30.0802 19.4363Z" fill="white"/>
<path d="M30.2312 17.021C30.2097 17.3612 30.1881 17.7015 30.1666 18.0437C30.1529 18.2685 30.368 18.4602 30.5831 18.4602C30.8197 18.4602 30.9859 18.2685 30.9996 18.0437C31.0211 17.7034 31.0427 17.3632 31.0642 17.021C31.0778 16.7961 30.8628 16.6045 30.6477 16.6045C30.4111 16.6045 30.2449 16.7961 30.2312 17.021Z" fill="white"/>
<path d="M33.9013 21.2136C34.2415 19.6942 34.5817 18.1749 34.9239 16.6555C35.0413 16.1335 34.2376 15.9086 34.1203 16.4346C33.78 17.9539 33.4398 19.4733 33.0976 20.9926C32.9803 21.5147 33.7839 21.7396 33.9013 21.2136Z" fill="white"/>
<path d="M42.6534 26.7887C42.2389 27.0038 41.8244 27.2208 41.4098 27.4359C40.9327 27.6842 41.3551 28.4038 41.8302 28.1555C42.2448 27.9404 42.6593 27.7233 43.0739 27.5083C43.551 27.2599 43.1286 26.5403 42.6534 26.7887Z" fill="white"/>
<path d="M47.3684 24.3346C46.3711 24.8527 45.3739 25.3729 44.3766 25.8911C43.8995 26.1394 44.3219 26.859 44.797 26.6106C45.7943 26.0905 46.7915 25.5723 47.7888 25.0542C48.2659 24.8058 47.8435 24.0862 47.3684 24.3346Z" fill="white"/>
<path d="M44.5619 33.085C43.7582 33.1358 42.9526 33.1866 42.1489 33.2355C41.6151 33.2688 41.6112 34.1037 42.1489 34.0705C42.9526 34.0196 43.7582 33.9688 44.5619 33.9199C45.0957 33.8867 45.0996 33.0517 44.5619 33.085Z" fill="white"/>
<path d="M46.9773 32.9344C46.637 32.9559 46.2968 32.9774 45.9546 32.9989C45.7297 33.0126 45.5381 33.1808 45.5381 33.4154C45.5381 33.6305 45.7297 33.8476 45.9546 33.8319C46.2948 33.8104 46.6351 33.7889 46.9773 33.7674C47.2021 33.7537 47.3938 33.5855 47.3938 33.3509C47.3938 33.1358 47.2021 32.9187 46.9773 32.9344Z" fill="white"/>
<path d="M43.0072 30.9025C44.5266 30.5622 46.0459 30.22 47.5653 29.8798C48.0893 29.7625 47.8664 28.9588 47.3443 29.0761C45.825 29.4164 44.3056 29.7585 42.7863 30.0988C42.2622 30.2161 42.4851 31.0198 43.0072 30.9025Z" fill="white"/>
</g>
</g>
<defs>
<clipPath id="clip0_2002_5529">
<rect width="32" height="32" fill="white" transform="translate(16 16)"/>
</clipPath>
<clipPath id="clip1_2002_5529">
<rect width="32" height="32.0098" fill="white" transform="translate(16 16)"/>
</clipPath>
</defs>
</svg>
