<svg width="64" height="64" viewBox="0 0 64 64" fill="none" xmlns="http://www.w3.org/2000/svg">
<circle cx="32" cy="32" r="32" fill="#0093D0"/>
<g clip-path="url(#clip0_2002_5874)">
<path d="M23.3726 41.8206C23.2392 41.8206 23.1044 41.772 23.0001 41.6719C16.8834 35.8831 22.0022 26.257 22.0536 26.1611C22.1718 25.9443 22.4219 25.8345 22.6624 25.8943C22.9028 25.954 23.071 26.1695 23.0724 26.4169C23.0724 26.4335 23.1141 28.2779 24.6749 30.4474C25.2586 31.2591 26.0022 31.5371 26.3552 31.33C26.7819 31.0784 26.8695 30.0235 26.055 28.2987C23.5616 23.0173 27.8479 19.9109 27.891 19.8804C28.055 19.765 28.2677 19.7497 28.4456 19.8387C28.6249 19.9276 28.7388 20.1083 28.7444 20.3084C28.7805 21.5329 29.0029 22.585 29.406 23.4356C29.488 23.608 29.67 23.7205 29.891 23.7344C30.087 23.7469 30.3441 23.6788 30.49 23.4523C32.1495 20.8658 30.7291 16.7657 30.7138 16.7254C30.6388 16.5127 30.7027 16.2737 30.8764 16.1292C31.0502 15.9832 31.2948 15.961 31.4921 16.0722C37.0974 19.248 35.9966 23.4078 35.2684 26.1611C34.7249 28.2153 34.611 29.0298 35.5825 29.4412C36.2288 29.715 36.7944 29.7025 37.3128 29.4009C39.0654 28.3849 39.9021 24.3974 40.0759 22.9464C40.1037 22.7087 40.2857 22.5183 40.522 22.4766C40.7555 22.4363 40.9932 22.5544 41.0988 22.7685C43.0919 26.7727 43.9814 30.7379 43.6714 34.2376C43.399 37.3022 42.2371 39.8331 40.3983 41.3647C40.1676 41.5565 39.8257 41.5246 39.6353 41.2952C39.4435 41.0645 39.4755 40.724 39.7048 40.5322C42.5832 38.1347 44.0328 32.2834 40.8431 24.7977C40.4317 26.6184 39.5533 29.355 37.8563 30.339C37.0349 30.8157 36.1259 30.8491 35.1586 30.4391C33.2295 29.6219 33.7326 27.7205 34.219 25.8831C34.9098 23.2716 35.6853 20.3432 32.1092 17.7511C32.4442 19.3494 32.7041 22.0096 31.4018 24.0374C31.0668 24.5586 30.4581 24.8588 29.8215 24.8157C29.2003 24.7754 28.6791 24.4335 28.4261 23.8998C28.0926 23.1979 27.866 22.3877 27.7493 21.4843C26.8208 22.535 25.5575 24.7101 27.0335 27.8373C28.5248 30.9964 27.3115 32.0249 26.9042 32.2654C25.9855 32.8074 24.6763 32.3098 23.7937 31.0826C23.021 30.0082 22.579 29.0034 22.326 28.2042C21.235 30.9909 19.6117 36.9756 23.7437 40.8866C23.9605 41.0923 23.9702 41.4356 23.7645 41.6524C23.6575 41.765 23.5144 41.822 23.3712 41.822L23.3726 41.8206Z" fill="white"/>
<path d="M28.1359 43.8664C27.8412 43.8664 27.6008 43.6301 27.5938 43.3355C27.5883 43.0366 27.826 42.7892 28.1248 42.7823L40.7891 42.5307C41.081 42.5182 41.3353 42.7628 41.3423 43.0617C41.3478 43.3605 41.1102 43.6079 40.8114 43.6148L28.147 43.8664C28.147 43.8664 28.1401 43.8664 28.1359 43.8664Z" fill="white"/>
<path d="M28.216 47.8689C27.9213 47.8689 27.6809 47.6326 27.6739 47.3379C27.6684 47.0391 27.906 46.7917 28.2048 46.7848L40.8692 46.5332C40.8692 46.5332 40.8761 46.5332 40.8803 46.5332C41.175 46.5332 41.4154 46.7695 41.4224 47.0641C41.4279 47.3629 41.1903 47.6103 40.8914 47.6173L28.2271 47.8689C28.2271 47.8689 28.2201 47.8689 28.216 47.8689Z" fill="white"/>
<path d="M40.8634 47.6171C40.3491 47.6171 39.8585 47.3225 39.5152 46.8069C39.2108 46.3482 39.0357 45.7464 39.0232 45.1098C38.9954 43.6839 39.7709 42.5511 40.7897 42.5303C40.798 42.5303 40.8078 42.5303 40.8161 42.5303C41.3303 42.5303 41.821 42.8249 42.1643 43.3406C42.4686 43.7992 42.6438 44.401 42.6563 45.0376C42.6841 46.4636 41.9085 47.5963 40.8898 47.6171C40.88 47.6171 40.8717 47.6171 40.8634 47.6171ZM40.1073 45.0876C40.1156 45.5143 40.2296 45.9215 40.4186 46.2064C40.559 46.4163 40.7174 46.5331 40.8689 46.5331C41.208 46.5261 41.5889 45.8812 41.5722 45.0584C41.5638 44.6317 41.4499 44.2245 41.2608 43.9396C41.1205 43.7297 40.962 43.6171 40.8105 43.613C40.4714 43.6199 40.0906 44.2648 40.1073 45.0876Z" fill="white"/>
<path d="M28.1993 47.8688C27.685 47.8688 27.1944 47.5741 26.8511 47.0585C26.5468 46.5999 26.3716 45.998 26.3591 45.3615C26.3313 43.9355 27.1069 42.8028 28.1256 42.7819C28.4189 42.7666 28.6732 43.014 28.6788 43.3128C28.6843 43.6117 28.4467 43.8604 28.1479 43.866C27.8087 43.873 27.4279 44.5179 27.4446 45.3393C27.4529 45.7659 27.5669 46.1732 27.7559 46.4581C27.8963 46.668 28.052 46.7791 28.2076 46.7847C28.2118 46.7847 28.2146 46.7847 28.2187 46.7847C28.5134 46.7847 28.7538 47.021 28.7608 47.3156C28.7664 47.6144 28.5287 47.8618 28.2299 47.8688C28.2215 47.8688 28.2118 47.8688 28.2035 47.8688H28.1993Z" fill="white"/>
<path d="M23.0033 44.8999C22.8643 44.8999 22.7253 44.8471 22.6197 44.7401C22.4084 44.5274 22.4098 44.1841 22.6211 43.9729L31.5981 35.0347C31.8094 34.8234 32.1527 34.8248 32.3653 35.0361C32.5766 35.2487 32.5752 35.592 32.3639 35.8033L23.3869 44.7428C23.2812 44.8485 23.1422 44.9013 23.0047 44.9013L23.0033 44.8999Z" fill="white"/>
<path d="M31.7718 41.8198C31.6328 41.8198 31.4938 41.767 31.3882 41.6599C31.177 41.4473 31.1784 41.104 31.3896 40.8927L34.4237 37.8726C34.6349 37.6613 34.9796 37.6627 35.1909 37.874C35.4021 38.0866 35.4007 38.4299 35.1895 38.6412L32.1554 41.6613C32.0498 41.767 31.9108 41.8198 31.7732 41.8198H31.7718Z" fill="white"/>
<path d="M34.1046 39.0597C33.4569 39.0597 32.7175 38.7345 32.106 38.1202C31.0997 37.1084 30.8774 35.7547 31.5987 35.0347C31.9698 34.665 32.5368 34.5316 33.1525 34.6692C33.689 34.7901 34.2325 35.1042 34.6814 35.5559C35.6876 36.5663 35.91 37.9214 35.1887 38.64C34.9051 38.9221 34.5243 39.0583 34.1046 39.0583V39.0597ZM32.8746 37.3558C33.4541 37.9381 34.1824 38.1119 34.4243 37.8728C34.6647 37.6337 34.4938 36.9041 33.9142 36.3217C33.6126 36.0201 33.2498 35.8033 32.9163 35.7283C32.6703 35.6727 32.4687 35.7005 32.3645 35.8047C32.1241 36.0438 32.295 36.7734 32.8746 37.3558Z" fill="white"/>
<path d="M25.1272 47.9997C24.4615 47.9997 23.7179 47.6509 23.13 47.0602C22.1238 46.0498 21.9 44.6947 22.6227 43.9761C22.834 43.7649 23.1773 43.7662 23.3899 43.9775C23.6012 44.1901 23.5998 44.5334 23.3885 44.7447C23.1481 44.9838 23.319 45.7134 23.9 46.2958C24.2836 46.6808 24.7812 46.9254 25.1467 46.917C25.4483 46.8976 25.6943 47.1478 25.6999 47.448C25.7068 47.7468 25.4678 47.9956 25.1689 48.0011C25.155 48.0011 25.1425 48.0011 25.1286 48.0011L25.1272 47.9997Z" fill="white"/>
</g>
<defs>
<clipPath id="clip0_2002_5874">
<rect width="23.7345" height="32" fill="white" transform="translate(20 16)"/>
</clipPath>
</defs>
</svg>
