<svg width="64" height="64" viewBox="0 0 64 64" fill="none" xmlns="http://www.w3.org/2000/svg">
<circle cx="32" cy="32" r="32" fill="#0093D0"/>
<path d="M43.5566 45.7369H20.4434C18.5449 45.7369 17 44.192 17 42.2936V30.4775C17 28.5791 18.5449 27.0342 20.4434 27.0342H43.5566C45.4551 27.0342 47 28.5791 47 30.4775V42.2936C47 44.192 45.4551 45.7369 43.5566 45.7369ZM20.4434 27.7671C18.9487 27.7671 17.7329 28.9829 17.7329 30.4775V42.2936C17.7329 43.7882 18.9487 45.004 20.4434 45.004H43.5566C45.0513 45.004 46.2671 43.7882 46.2671 42.2936V30.4775C46.2671 28.9829 45.0513 27.7671 43.5566 27.7671H20.4434Z" fill="white" stroke="white" stroke-width="0.375"/>
<path d="M42.596 27.7668H28.653C28.5308 27.7668 28.4173 27.7065 28.3497 27.6059C28.2822 27.5053 28.2678 27.3774 28.3138 27.2638L29.087 25.3496C29.5655 24.1654 30.6994 23.3994 31.977 23.3994H39.2748C40.5524 23.3994 41.6863 24.164 42.1648 25.3496L42.938 27.2638C42.984 27.3774 42.9696 27.5053 42.9021 27.6059C42.8345 27.7065 42.7195 27.7668 42.5988 27.7668H42.596ZM29.1962 27.0339H42.0527L41.4836 25.6226C41.1172 24.7173 40.2506 24.1309 39.2733 24.1309H31.9756C30.9984 24.1309 30.1303 24.7158 29.7653 25.6226L29.1962 27.0339Z" fill="white" stroke="white" stroke-width="0.375"/>
<path d="M35.6256 42.3782C32.3217 42.3782 29.6328 39.6893 29.6328 36.3854C29.6328 33.0814 32.3217 30.3926 35.6256 30.3926C38.9296 30.3926 41.6184 33.0814 41.6184 36.3854C41.6184 39.6893 38.9296 42.3782 35.6256 42.3782ZM35.6256 31.1255C32.7255 31.1255 30.3657 33.4853 30.3657 36.3854C30.3657 39.2855 32.7255 41.6453 35.6256 41.6453C38.5257 41.6453 40.8855 39.2855 40.8855 36.3854C40.8855 33.4853 38.5257 31.1255 35.6256 31.1255Z" fill="white" stroke="white" stroke-width="0.375"/>
<path d="M22.3547 45.7369C22.1521 45.7369 21.9883 45.5731 21.9883 45.3705V27.4006C21.9883 27.198 22.1521 27.0342 22.3547 27.0342C22.5574 27.0342 22.7212 27.198 22.7212 27.4006V45.369C22.7212 45.5717 22.5574 45.7355 22.3547 45.7355V45.7369Z" fill="white" stroke="white" stroke-width="0.375"/>
<path d="M25.5647 45.7369C25.3621 45.7369 25.1982 45.5731 25.1982 45.3705V27.4006C25.1982 27.198 25.3621 27.0342 25.5647 27.0342C25.7673 27.0342 25.9312 27.198 25.9312 27.4006V45.369C25.9312 45.5717 25.7673 45.7355 25.5647 45.7355V45.7369Z" fill="white" stroke="white" stroke-width="0.375"/>
<path d="M32.6746 34.943C32.6315 34.943 32.587 34.9358 32.5453 34.92C32.3556 34.8481 32.2607 34.6368 32.3326 34.4471C33.1575 32.2699 35.4986 32.2383 35.6251 32.2383H35.6265C35.8291 32.2383 35.993 32.4036 35.9915 32.6062C35.9915 32.8074 35.8263 32.9712 35.6251 32.9712C35.5403 32.9712 33.6634 32.9985 33.0181 34.7073C32.9621 34.8538 32.8227 34.9444 32.6746 34.9444V34.943Z" fill="white" stroke="white" stroke-width="0.375"/>
<path d="M43.3841 30.9058H41.6409C41.4382 30.9058 41.2744 30.742 41.2744 30.5393C41.2744 30.3367 41.4382 30.1729 41.6409 30.1729H43.3841C43.5867 30.1729 43.7506 30.3367 43.7506 30.5393C43.7506 30.742 43.5867 30.9058 43.3841 30.9058Z" fill="white" stroke="white" stroke-width="0.375"/>
<path d="M35.6253 22.5635C35.4226 22.5635 35.2588 22.3997 35.2588 22.197V19.261C35.2588 19.0584 35.4226 18.8945 35.6253 18.8945C35.8279 18.8945 35.9917 19.0584 35.9917 19.261V22.197C35.9917 22.3997 35.8279 22.5635 35.6253 22.5635Z" fill="white" stroke="white" stroke-width="0.375"/>
<path d="M41.2512 23.0045C41.1578 23.0045 41.0644 22.9686 40.9926 22.8968C40.8488 22.753 40.8488 22.5217 40.9926 22.378L42.4785 20.892C42.6223 20.7483 42.8536 20.7483 42.9973 20.892C43.1411 21.0357 43.1411 21.2671 42.9973 21.4108L41.5114 22.8968C41.4395 22.9686 41.3461 23.0045 41.2527 23.0045H41.2512Z" fill="white" stroke="white" stroke-width="0.375"/>
<path d="M29.9987 23.0043C29.9053 23.0043 29.8119 22.9684 29.74 22.8965L28.3949 21.5514C28.2512 21.4077 28.2512 21.1763 28.3949 21.0326C28.5372 20.8889 28.77 20.8889 28.9137 21.0326L30.2588 22.3777C30.4026 22.5215 30.4026 22.7528 30.2588 22.8965C30.187 22.9684 30.0936 23.0043 30.0002 23.0043H29.9987Z" fill="white" stroke="white" stroke-width="0.375"/>
<path d="M25.565 25.5067C25.5118 25.5067 25.4572 25.4952 25.4069 25.4707L23.691 24.6487C23.5085 24.561 23.4308 24.3426 23.5185 24.1601C23.6062 23.9776 23.8246 23.9014 24.0071 23.9876L25.7231 24.8097C25.9056 24.8973 25.9832 25.1158 25.8955 25.2983C25.8323 25.4291 25.7015 25.5067 25.565 25.5067Z" fill="white" stroke="white" stroke-width="0.375"/>
</svg>
