<svg width="64" height="64" viewBox="0 0 64 64" fill="none" xmlns="http://www.w3.org/2000/svg">
<circle cx="32" cy="32" r="32" fill="#0093D0"/>
<g clip-path="url(#clip0_2002_5929)">
<path d="M35.8354 41.5898C34.5036 41.5898 33.4609 40.7811 33.4609 39.749C33.4609 38.7169 34.5048 37.9082 35.8354 37.9082C37.166 37.9082 38.211 38.7169 38.211 39.749C38.211 40.7811 37.1672 41.5898 35.8354 41.5898ZM35.8354 38.8251C35.0455 38.8251 34.3778 39.2482 34.3778 39.749C34.3778 40.2498 35.0455 40.6729 35.8354 40.6729C36.6253 40.6729 37.2942 40.2498 37.2942 39.749C37.2942 39.2482 36.6265 38.8251 35.8354 38.8251Z" fill="white"/>
<path d="M45.6245 43.0156C44.2926 43.0156 43.25 42.2068 43.25 41.1748C43.25 40.1427 44.2938 39.334 45.6245 39.334C46.9551 39.334 48.0001 40.1427 48.0001 41.1748C48.0001 42.2068 46.9563 43.0156 45.6245 43.0156ZM45.6245 40.2509C44.8345 40.2509 44.1669 40.674 44.1669 41.1748C44.1669 41.6755 44.8345 42.0987 45.6245 42.0987C46.4144 42.0987 47.0832 41.6755 47.0832 41.1748C47.0832 40.674 46.4156 40.2509 45.6245 40.2509Z" fill="white"/>
<path d="M43.7087 41.6326C43.456 41.6326 43.2503 41.4268 43.2503 41.1741V31.239L34.3778 29.946V39.7483C34.3778 40.001 34.1721 40.2067 33.9194 40.2067C33.6666 40.2067 33.4609 40.001 33.4609 39.7483V29.4158C33.4609 29.283 33.5185 29.156 33.6196 29.0691C33.7207 28.9821 33.8547 28.9421 33.9852 28.9621L43.7746 30.3879C44.0003 30.4209 44.1672 30.6136 44.1672 30.8417V41.1741C44.1672 41.4268 43.9615 41.6326 43.7087 41.6326Z" fill="white"/>
<path d="M43.7087 31.3017C43.456 31.3017 43.2503 31.096 43.2503 30.8433V28.6111L34.3778 27.318V29.4174C34.3778 29.6702 34.1721 29.8759 33.9194 29.8759C33.6666 29.8759 33.4609 29.6702 33.4609 29.4174V26.7879C33.4609 26.6551 33.5185 26.5281 33.6196 26.4411C33.7207 26.3541 33.8547 26.3142 33.9852 26.3342L43.7746 27.76C44.0003 27.7929 44.1672 27.9857 44.1672 28.2137V30.8433C44.1672 31.096 43.9615 31.3017 43.7087 31.3017Z" fill="white"/>
<path d="M27.5044 43.0112C26.5699 43.0112 25.6331 42.8983 24.7162 42.6691C18.5614 41.1304 14.8069 34.871 16.3445 28.7162C17.8832 22.5614 24.1414 18.8069 30.2974 20.3445C32.9869 21.0168 35.3425 22.6366 36.9294 24.9041C37.0752 25.1122 37.0246 25.3978 36.8166 25.5424C36.6085 25.6882 36.3229 25.6365 36.1783 25.4296C34.7172 23.3419 32.5496 21.8526 30.074 21.2331C24.4106 19.819 18.6508 23.2749 17.2343 28.9384C15.819 34.603 19.2749 40.3628 24.9396 41.7793C27.3199 42.3741 29.8495 42.1213 32.0606 41.0669C32.2886 40.9576 32.5625 41.054 32.6718 41.2832C32.7812 41.5113 32.6836 41.7852 32.4556 41.8945C30.9039 42.6339 29.2089 43.0112 27.5056 43.0112H27.5044Z" fill="white"/>
<path d="M27.5064 34.1106C27.2983 34.1106 27.0867 34.0848 26.8751 34.0319C26.2004 33.8638 25.6315 33.4418 25.2741 32.8458C24.9168 32.2498 24.8122 31.5493 24.9814 30.8745C25.1495 30.1998 25.5715 29.6309 26.1675 29.2735C26.7646 28.9162 27.4629 28.8116 28.1388 28.9797C29.5317 29.3276 30.3804 30.7441 30.0325 32.137C29.7374 33.3184 28.6724 34.1094 27.5064 34.1094V34.1106ZM27.504 29.8201C27.2019 29.8201 26.9045 29.9012 26.6389 30.0611C26.2521 30.2927 25.9794 30.6618 25.8701 31.0991C25.7608 31.5363 25.8278 31.9889 26.0594 32.3756C26.2909 32.7624 26.66 33.0351 27.0973 33.1444C27.5346 33.2537 27.9871 33.1867 28.3739 32.954C28.7606 32.7224 29.0333 32.3545 29.1426 31.9172C29.3683 31.0156 28.817 30.0975 27.9154 29.8719C27.7791 29.8378 27.6404 29.8213 27.504 29.8213V29.8201Z" fill="white"/>
<path d="M19.0315 29.846C18.995 29.846 18.9574 29.8413 18.9198 29.8319C18.6741 29.7707 18.5248 29.5215 18.586 29.2759C19.1819 26.8932 20.6701 24.8843 22.7754 23.6206C24.8818 22.357 27.3538 21.9891 29.7365 22.5851C29.9822 22.6462 30.1315 22.8954 30.0704 23.1411C30.0092 23.3867 29.7612 23.5372 29.5144 23.4749C27.3691 22.9389 25.1439 23.2704 23.2467 24.4082C21.3507 25.5461 20.0106 27.354 19.4746 29.4992C19.4229 29.7073 19.236 29.846 19.0303 29.846H19.0315Z" fill="white"/>
<path d="M27.512 40.7052C26.762 40.7052 26.0133 40.6123 25.2762 40.4289C25.0306 40.3678 24.8813 40.1186 24.9424 39.8729C25.0035 39.6272 25.2527 39.478 25.4984 39.5391C26.4306 39.7718 27.3839 39.8424 28.3313 39.7471C28.5852 39.7225 28.8074 39.9058 28.8332 40.1574C28.8591 40.4089 28.6745 40.6334 28.423 40.6593C28.1197 40.6899 27.8153 40.7052 27.512 40.7052Z" fill="white"/>
</g>
<defs>
<clipPath id="clip0_2002_5929">
<rect width="32" height="23.0147" fill="white" transform="translate(16 20)"/>
</clipPath>
</defs>
</svg>
