<svg width="64" height="64" viewBox="0 0 64 64" fill="none" xmlns="http://www.w3.org/2000/svg">
<circle cx="32" cy="32" r="32" fill="#0093D0"/>
<g clip-path="url(#clip0_2002_6041)">
<path d="M16.5138 48C16.2305 48 15.9999 47.7694 15.9999 47.4861C15.9999 47.2027 16.2305 46.9721 16.5138 46.9721H17.9271V43.6307C17.9271 43.3474 18.1577 43.1168 18.4411 43.1168H19.8544V36.3004L19.4638 36.2485C18.0505 36.0613 17.1494 35.4869 16.6287 34.442C16.0739 33.3291 15.999 31.7813 15.999 30.4131V30.0081C15.999 29.7247 16.2296 29.4942 16.513 29.4942C16.7963 29.4942 17.0269 29.7247 17.0269 30.0081C17.0269 30.7875 17.6608 31.4214 18.4402 31.4214C20.7393 31.4214 21.671 30.7033 21.7774 30.0319L21.7816 30.0081V29.9834C21.7961 29.7094 22.0216 29.4942 22.2964 29.4942H23.7097V26.6607L23.3115 26.6148C20.1411 26.2506 17.9271 23.8494 17.9271 20.7735V20.3684C17.9271 20.0851 18.1577 19.8545 18.4411 19.8545C18.7244 19.8545 18.955 20.0851 18.955 20.3684C18.955 21.1478 19.5889 21.7817 20.3683 21.7817C22.6283 21.7817 23.571 21.0789 23.6995 20.422L23.7097 20.3718L23.708 20.3208C23.6816 19.555 23.0622 18.9551 22.2964 18.9551C22.0131 18.9551 21.7825 18.7245 21.7825 18.4412C21.7825 18.1578 22.0131 17.9272 22.2964 17.9272C23.3277 17.9272 24.2526 18.5816 24.598 19.5558L24.7044 19.8554H29.9101L29.6974 19.2555C29.6046 18.9934 29.5578 18.7203 29.5578 18.442C29.5578 17.0959 30.6529 16 31.9999 16C33.3468 16 34.4419 17.0951 34.4419 18.442C34.4419 18.7203 34.3951 18.9934 34.3024 19.2555L34.0896 19.8554H39.2953L39.4017 19.5558C39.7472 18.5816 40.6721 17.9272 41.7033 17.9272C41.9867 17.9272 42.2173 18.1578 42.2173 18.4412C42.2173 18.7245 41.9867 18.9551 41.7033 18.9551C40.9375 18.9551 40.3173 19.555 40.2917 20.3208L40.29 20.3718L40.3002 20.422C40.4287 21.0798 41.3715 21.7817 43.6314 21.7817C44.4109 21.7817 45.0448 21.1478 45.0448 20.3684C45.0448 20.0851 45.2754 19.8545 45.5587 19.8545C45.842 19.8545 46.0726 20.0851 46.0726 20.3684V20.7735C46.0726 23.8485 43.8586 26.2506 40.6882 26.6148L40.29 26.6607V29.4942H41.7033C41.9782 29.4942 42.2037 29.7094 42.2164 29.9834V30.0081L42.2215 30.0319C42.327 30.7041 43.2596 31.4214 45.5587 31.4214C46.3381 31.4214 46.972 30.7875 46.972 30.0081C46.972 29.7247 47.2026 29.4942 47.4859 29.4942C47.7693 29.4942 47.9999 29.7247 47.9999 30.0081V30.4131C47.9999 33.8183 47.4332 35.8647 44.5351 36.2485L44.1445 36.3004V43.1168H45.5578C45.8412 43.1168 46.0718 43.3474 46.0718 43.6307V46.9721H47.4851C47.7684 46.9721 47.999 47.2027 47.999 47.4861C47.999 47.7694 47.7684 48 47.4851 48H16.5138ZM18.9558 46.9721H45.0448V44.1446H18.9558V46.9721ZM40.2892 43.1168H43.1167V36.3055H40.2892V43.1168ZM36.4338 43.1168H39.2613V26.6667H36.4338V43.1168ZM28.5946 43.1168H35.406V36.3055H28.5946V43.1168ZM24.7393 43.1168H27.5668V26.6667H24.7393V43.1168ZM20.8831 43.1168H23.7106V36.3055H20.8831V43.1168ZM40.2892 35.2776H43.6306C45.5629 35.2776 46.5185 34.5543 46.8248 32.8602L46.955 32.1404L46.2539 32.3489C46.0292 32.4161 45.7952 32.4493 45.5587 32.4493C42.8435 32.4493 41.802 31.5337 41.4064 30.7654L41.2805 30.5212H40.2892V35.2759V35.2776ZM28.5946 35.2776H35.406V30.5229H28.5946V35.2776ZM17.1758 32.8602C17.4821 34.5543 18.4368 35.2776 20.37 35.2776H23.7114V30.5229H22.7201L22.5942 30.7671C22.1986 31.5354 21.1571 32.451 18.4419 32.451C18.2054 32.451 17.9714 32.4169 17.7467 32.3506L17.0456 32.1421L17.1758 32.8619V32.8602ZM28.5946 29.4942H35.406V26.6667H28.5946V29.4942ZM19.7795 23.5048C20.7087 24.8807 22.287 25.6388 24.2245 25.6388H39.7752C41.7127 25.6388 43.2911 24.8807 44.2203 23.5048L44.7401 22.7356L43.8144 22.8045C43.754 22.8088 43.6927 22.8113 43.6314 22.8113C40.9163 22.8113 39.8748 21.8958 39.4791 21.1274L39.3532 20.8832H24.6474L24.5215 21.1274C24.1258 21.8958 23.0843 22.8113 20.3692 22.8113C20.3079 22.8113 20.2458 22.8088 20.1862 22.8045L19.2605 22.7356L19.7803 23.5048H19.7795ZM31.9999 17.0279C31.2205 17.0279 30.5866 17.6618 30.5866 18.4412C30.5866 19.2206 31.2205 19.8545 31.9999 19.8545C32.7793 19.8545 33.4132 19.2206 33.4132 18.4412C33.4132 17.6618 32.7793 17.0279 31.9999 17.0279Z" fill="white"/>
</g>
<defs>
<clipPath id="clip0_2002_6041">
<rect width="32" height="32" fill="white" transform="translate(16 16)"/>
</clipPath>
</defs>
</svg>
