<svg width="64" height="64" viewBox="0 0 64 64" fill="none" xmlns="http://www.w3.org/2000/svg">
<circle cx="32" cy="32" r="32" fill="#0093D0"/>
<g clip-path="url(#clip0_2002_6061)">
<path d="M29.9915 42.6295C29.9613 42.6295 29.9298 42.627 29.8984 42.6219C29.5487 42.5716 29.3059 42.2471 29.3575 41.8986C29.4267 41.4181 31.1739 30.0994 41.2926 26.2678C41.6246 26.1483 41.9932 26.3094 42.1177 26.6402C42.2423 26.9698 42.0762 27.3396 41.7454 27.4654C32.3425 31.0265 30.638 41.9729 30.6217 42.0823C30.5752 42.3993 30.3022 42.6295 29.989 42.6295H29.9915Z" fill="white"/>
<path d="M34.8492 38.9434C34.0731 38.9434 33.4215 38.8553 32.9875 38.6955C32.6567 38.5735 32.4869 38.205 32.6089 37.8741C32.7322 37.542 33.1007 37.3735 33.4316 37.4955C34.5071 37.8905 38.1286 37.6729 40.5841 36.1357C42.0294 35.2313 42.8357 34.0312 42.9804 32.5683C43.3628 28.6838 45.1075 25.7101 46.1314 24.2623C42.4042 24.1201 34.1624 25.1327 31.7875 28.5077C29.2515 32.1104 32.102 35.9898 32.2252 36.1533C32.4378 36.4363 32.3812 36.8376 32.0982 37.0489C31.8164 37.2603 31.4151 37.2049 31.2038 36.9244C31.1686 36.8766 27.664 32.1431 30.7422 27.7693C33.8907 23.2949 44.632 22.6622 47.4573 23.0886C47.69 23.1239 47.8837 23.2824 47.9642 23.5038C48.0435 23.7251 47.9957 23.973 47.8397 24.1478C47.8082 24.183 44.7515 27.6624 44.2559 32.694C44.0735 34.5457 43.0395 36.1118 41.2646 37.2213C39.3274 38.4339 36.7298 38.9434 34.8518 38.9434H34.8492Z" fill="white"/>
<path d="M33.4497 34.0547C33.1881 34.0547 32.944 33.8937 32.8484 33.6345C32.7277 33.3024 32.8975 32.9339 33.2296 32.8131C33.7013 32.642 37.8814 31.1489 39.5984 31.6395C39.938 31.7363 40.1355 32.0911 40.0387 32.4307C39.9406 32.7704 39.582 32.9716 39.2474 32.8697C38.2461 32.5867 35.2951 33.4194 33.6699 34.0157C33.5969 34.0421 33.5227 34.0547 33.4497 34.0547Z" fill="white"/>
<path d="M36.6544 30.4046C36.3223 30.4046 36.043 30.148 36.0166 29.8134L35.7977 26.9152C35.7713 26.563 36.0355 26.2548 36.3877 26.2271C36.7462 26.2133 37.0468 26.4661 37.0745 26.8171L37.2934 29.7153C37.3198 30.0675 37.0556 30.3757 36.7034 30.4034C36.6871 30.4046 36.6707 30.4046 36.6544 30.4046Z" fill="white"/>
<path d="M27.7713 34.054C27.4405 34.054 27.1612 33.7999 27.1335 33.4653C27.1172 33.259 26.6794 28.416 22.0113 26.5493C21.683 26.4185 21.5233 26.0449 21.6541 25.7178C21.7849 25.3895 22.161 25.2297 22.4856 25.3618C27.9071 27.5292 28.3902 33.1307 28.4091 33.3672C28.4355 33.7194 28.1726 34.0263 27.8204 34.054C27.804 34.054 27.7876 34.054 27.77 34.054H27.7713Z" fill="white"/>
<path d="M24.4081 32.3783C23.4319 32.3783 21.6734 32.0587 20.0997 30.0851C19.1072 28.8398 18.6707 27.3265 18.2846 25.9906C17.833 24.4245 17.443 23.0722 16.3335 22.4672C16.0983 22.3376 15.9687 22.0772 16.0065 21.8118C16.0455 21.5464 16.2442 21.3338 16.5059 21.2784C16.6103 21.2583 26.7868 19.1853 28.9856 26.6862C29.085 27.0246 28.8913 27.3818 28.5516 27.4799C28.2132 27.5831 27.8573 27.3843 27.7579 27.046C26.3302 22.1741 20.7211 22.0948 18.116 22.3439C18.828 23.2559 19.1752 24.4584 19.5135 25.6333C19.8834 26.9151 20.2658 28.2397 21.0998 29.2863C22.852 31.4826 24.7829 31.0788 24.8647 31.06C25.2106 30.9795 25.5515 31.1958 25.6308 31.5367C25.7113 31.8789 25.5037 32.221 25.1628 32.304C25.1276 32.3128 24.8471 32.3783 24.4081 32.3783Z" fill="white"/>
</g>
<defs>
<clipPath id="clip0_2002_6061">
<rect width="32" height="21.6285" fill="white" transform="translate(16 21)"/>
</clipPath>
</defs>
</svg>
