<svg width="64" height="64" viewBox="0 0 64 64" fill="none" xmlns="http://www.w3.org/2000/svg">
<circle cx="32" cy="32" r="32" fill="#0093D0"/>
<g clip-path="url(#clip0_2002_6683)">
<path d="M45.7485 47.9994H18.5341C18.2391 47.9994 17.999 47.7593 17.999 47.4643V28.9199C17.999 28.6249 18.2391 28.3848 18.5341 28.3848H45.7485C46.0434 28.3848 46.2835 28.6249 46.2835 28.9199V47.4643C46.2835 47.7593 46.0434 47.9994 45.7485 47.9994ZM19.0692 46.9292H45.2134V29.455H19.0692V46.9292Z" fill="white"/>
<path d="M23.1103 23.4187C22.8153 23.4187 22.5752 23.1786 22.5752 22.8836V19.2216C22.5752 18.9266 22.8153 18.6865 23.1103 18.6865C23.4053 18.6865 23.6454 18.9266 23.6454 19.2216V22.8836C23.6454 23.1786 23.4053 23.4187 23.1103 23.4187Z" fill="white"/>
<path d="M25.3115 23.4187C25.0165 23.4187 24.7764 23.1786 24.7764 22.8836V19.2216C24.7764 18.9266 25.0165 18.6865 25.3115 18.6865C25.6064 18.6865 25.8466 18.9266 25.8466 19.2216V22.8836C25.8466 23.1786 25.6064 23.4187 25.3115 23.4187Z" fill="white"/>
<path d="M25.311 21.5887H23.1103C22.8153 21.5887 22.5752 21.3486 22.5752 21.0536C22.5752 20.7587 22.8153 20.5186 23.1103 20.5186H25.311C25.606 20.5186 25.8461 20.7587 25.8461 21.0536C25.8461 21.3486 25.606 21.5887 25.311 21.5887Z" fill="white"/>
<path d="M39.3085 23.4187C39.0135 23.4187 38.7734 23.1786 38.7734 22.8836V19.2216C38.7734 18.9266 39.0135 18.6865 39.3085 18.6865C39.6035 18.6865 39.8436 18.9266 39.8436 19.2216V22.8836C39.8436 23.1786 39.6035 23.4187 39.3085 23.4187Z" fill="white"/>
<path d="M41.5083 23.4188H39.3076C39.0126 23.4188 38.7725 23.1787 38.7725 22.8837C38.7725 22.5887 39.0126 22.3486 39.3076 22.3486H41.5083C41.8033 22.3486 42.0434 22.5887 42.0434 22.8837C42.0434 23.1787 41.8033 23.4188 41.5083 23.4188Z" fill="white"/>
<path d="M35.2255 23.4187C34.9305 23.4187 34.6904 23.1786 34.6904 22.8836V19.2216C34.6904 18.9266 34.9305 18.6865 35.2255 18.6865C35.5205 18.6865 35.7606 18.9266 35.7606 19.2216V22.8836C35.7606 23.1786 35.5205 23.4187 35.2255 23.4187Z" fill="white"/>
<path d="M37.4263 21.5887H35.2255C34.9305 21.5887 34.6904 21.3486 34.6904 21.0536C34.6904 20.7587 34.9305 20.5186 35.2255 20.5186H37.4263C37.7213 20.5186 37.9614 20.7587 37.9614 21.0536C37.9614 21.3486 37.7213 21.5887 37.4263 21.5887Z" fill="white"/>
<path d="M37.4263 23.4188H35.2255C34.9305 23.4188 34.6904 23.1787 34.6904 22.8837C34.6904 22.5887 34.9305 22.3486 35.2255 22.3486H37.4263C37.7213 22.3486 37.9614 22.5887 37.9614 22.8837C37.9614 23.1787 37.7213 23.4188 37.4263 23.4188Z" fill="white"/>
<path d="M37.4263 19.7567H35.2255C34.9305 19.7567 34.6904 19.5166 34.6904 19.2216C34.6904 18.9266 34.9305 18.6865 35.2255 18.6865H37.4263C37.7213 18.6865 37.9614 18.9266 37.9614 19.2216C37.9614 19.5166 37.7213 19.7567 37.4263 19.7567Z" fill="white"/>
<path d="M29.0553 23.4191H27.6531C27.1386 23.4191 26.7188 23.0006 26.7188 22.4847V19.6199C26.7188 19.1054 27.1372 18.6855 27.6531 18.6855H29.0553C29.5698 18.6855 29.9897 19.104 29.9897 19.6199V22.4847C29.9897 22.9992 29.5712 23.4191 29.0553 23.4191ZM27.7889 22.3489H28.9195V19.7571H27.7889V22.3489Z" fill="white"/>
<path d="M32.3183 23.4187C32.0233 23.4187 31.7832 23.1786 31.7832 22.8836V19.2216C31.7832 18.9266 32.0233 18.6865 32.3183 18.6865C32.6133 18.6865 32.8534 18.9266 32.8534 19.2216V22.8836C32.8534 23.1786 32.6133 23.4187 32.3183 23.4187Z" fill="white"/>
<path d="M33.4185 19.7567H31.2177C30.9227 19.7567 30.6826 19.5166 30.6826 19.2216C30.6826 18.9266 30.9227 18.6865 31.2177 18.6865H33.4185C33.7134 18.6865 33.9536 18.9266 33.9536 19.2216C33.9536 19.5166 33.7134 19.7567 33.4185 19.7567Z" fill="white"/>
<path d="M42.6753 26.1068H21.609C20.687 26.1068 19.9365 25.3563 19.9365 24.4343V17.6715C19.9365 16.7495 20.687 15.999 21.609 15.999H42.6753C43.5973 15.999 44.3478 16.7495 44.3478 17.6715V24.4357C44.3478 25.3577 43.5973 26.1082 42.6753 26.1082V26.1068ZM21.609 17.0692C21.277 17.0692 21.0067 17.3395 21.0067 17.6715V24.4357C21.0067 24.7677 21.277 25.038 21.609 25.038H42.6753C43.0073 25.038 43.2776 24.7677 43.2776 24.4357V17.6715C43.2776 17.3395 43.0073 17.0692 42.6753 17.0692H21.609Z" fill="white"/>
<path d="M23.4931 27.8649C23.1981 27.8649 22.958 27.6248 22.958 27.3298V25.5722C22.958 25.2772 23.1981 25.0371 23.4931 25.0371C23.7881 25.0371 24.0282 25.2772 24.0282 25.5722V27.3298C24.0282 27.6248 23.7881 27.8649 23.4931 27.8649Z" fill="white"/>
<path d="M40.7919 27.8649C40.4969 27.8649 40.2568 27.6248 40.2568 27.3298V25.5722C40.2568 25.2772 40.4969 25.0371 40.7919 25.0371C41.0869 25.0371 41.327 25.2772 41.327 25.5722V27.3298C41.327 27.6248 41.0869 27.8649 40.7919 27.8649Z" fill="white"/>
<path d="M33.6636 47.9991H30.6191C30.3241 47.9991 30.084 47.759 30.084 47.464V41.6054C30.084 41.3104 30.3241 41.0703 30.6191 41.0703H33.6636C33.9586 41.0703 34.1987 41.3104 34.1987 41.6054V47.464C34.1987 47.759 33.9586 47.9991 33.6636 47.9991ZM31.1542 46.9289H33.1285V42.1405H31.1542V46.9289Z" fill="white"/>
<path d="M42.7945 38.727H39.7499C39.4549 38.727 39.2148 38.4869 39.2148 38.1919V35.1474C39.2148 34.8524 39.4549 34.6123 39.7499 34.6123H42.7945C43.0895 34.6123 43.3296 34.8524 43.3296 35.1474V38.1919C43.3296 38.4869 43.0895 38.727 42.7945 38.727ZM40.285 37.6569H42.2594V35.6825H40.285V37.6569Z" fill="white"/>
<path d="M36.7066 38.727H33.662C33.3671 38.727 33.127 38.4869 33.127 38.1919V35.1474C33.127 34.8524 33.3671 34.6123 33.662 34.6123H36.7066C37.0016 34.6123 37.2417 34.8524 37.2417 35.1474V38.1919C37.2417 38.4869 37.0016 38.727 36.7066 38.727ZM34.1985 37.6569H36.1729V35.6825H34.1985V37.6569Z" fill="white"/>
<path d="M30.6207 38.727H27.5761C27.2811 38.727 27.041 38.4869 27.041 38.1919V35.1474C27.041 34.8524 27.2811 34.6123 27.5761 34.6123H30.6207C30.9156 34.6123 31.1558 34.8524 31.1558 35.1474V38.1919C31.1558 38.4869 30.9156 38.727 30.6207 38.727ZM28.1112 37.6569H30.0856V35.6825H28.1112V37.6569Z" fill="white"/>
<path d="M24.5328 38.727H21.4882C21.1932 38.727 20.9531 38.4869 20.9531 38.1919V35.1474C20.9531 34.8524 21.1932 34.6123 21.4882 34.6123H24.5328C24.8278 34.6123 25.0679 34.8524 25.0679 35.1474V38.1919C25.0679 38.4869 24.8278 38.727 24.5328 38.727ZM22.0247 37.6569H23.999V35.6825H22.0247V37.6569Z" fill="white"/>
<path d="M42.7945 45.1841H39.7499C39.4549 45.1841 39.2148 44.944 39.2148 44.649V41.6044C39.2148 41.3094 39.4549 41.0693 39.7499 41.0693H42.7945C43.0895 41.0693 43.3296 41.3094 43.3296 41.6044V44.649C43.3296 44.944 43.0895 45.1841 42.7945 45.1841ZM40.285 44.1139H42.2594V42.1395H40.285V44.1139Z" fill="white"/>
<path d="M24.5328 45.1841H21.4882C21.1932 45.1841 20.9531 44.944 20.9531 44.649V41.6044C20.9531 41.3094 21.1932 41.0693 21.4882 41.0693H24.5328C24.8278 41.0693 25.0679 41.3094 25.0679 41.6044V44.649C25.0679 44.944 24.8278 45.1841 24.5328 45.1841ZM22.0247 44.1139H23.999V42.1395H22.0247V44.1139Z" fill="white"/>
<path d="M45.7485 31.6639H18.5341C18.2391 31.6639 17.999 31.4238 17.999 31.1288C17.999 30.8339 18.2391 30.5938 18.5341 30.5938H45.7485C46.0434 30.5938 46.2835 30.8339 46.2835 31.1288C46.2835 31.4238 46.0434 31.6639 45.7485 31.6639Z" fill="white"/>
</g>
<defs>
<clipPath id="clip0_2002_6683">
<rect width="28.2859" height="32" fill="white" transform="translate(18 16)"/>
</clipPath>
</defs>
</svg>
