<svg width="64" height="64" viewBox="0 0 64 64" fill="none" xmlns="http://www.w3.org/2000/svg">
<circle cx="32" cy="32" r="32" fill="#0093D0"/>
<g clip-path="url(#clip0_2002_6709)">
<path d="M19.5351 46.486C19.2358 46.486 18.9922 46.2424 18.9922 45.9431V36.3906C18.9922 36.0913 19.2358 35.8477 19.5351 35.8477C19.8344 35.8477 20.078 36.0913 20.078 36.3906V45.9431C20.078 46.2424 19.8344 46.486 19.5351 46.486Z" fill="white"/>
<path d="M18.1765 38.7426C17.9885 38.7426 17.8048 38.6438 17.7046 38.4684C17.5556 38.2081 17.6461 37.8768 17.9064 37.7278L19.2651 36.951C19.5254 36.8035 19.8567 36.8925 20.0057 37.1529C20.1546 37.4132 20.0642 37.7445 19.8038 37.8935L18.4452 38.6702C18.3602 38.719 18.267 38.7412 18.1765 38.7412V38.7426Z" fill="white"/>
<path d="M17.4177 41.6486C17.2298 41.6486 17.046 41.5498 16.9458 41.3744C16.7968 41.1141 16.8873 40.7828 17.1476 40.6338L19.265 39.4227C19.5253 39.2751 19.8566 39.3642 20.0056 39.6245C20.1545 39.8849 20.0641 40.2162 19.8037 40.3651L17.6864 41.5763C17.6014 41.625 17.5082 41.6473 17.4177 41.6473V41.6486Z" fill="white"/>
<path d="M16.5446 44.6174C16.3567 44.6174 16.173 44.5185 16.0727 44.3431C15.9238 44.0828 16.0143 43.7515 16.2746 43.6025L19.2662 41.893C19.5265 41.7441 19.8578 41.8346 20.0068 42.0949C20.1557 42.3552 20.0652 42.6865 19.8049 42.8355L16.8133 44.545C16.7284 44.5937 16.6351 44.616 16.5446 44.616V44.6174Z" fill="white"/>
<path d="M20.9371 38.7428C20.8452 38.7428 20.7533 38.7192 20.6684 38.6718L19.3097 37.8951C19.0494 37.7461 18.9589 37.4148 19.1079 37.1545C19.2568 36.8941 19.5882 36.8037 19.8485 36.9526L21.2072 37.7294C21.4675 37.8783 21.558 38.2097 21.409 38.47C21.3088 38.6454 21.125 38.7442 20.9371 38.7442V38.7428Z" fill="white"/>
<path d="M21.6958 41.6479C21.6039 41.6479 21.512 41.6242 21.4271 41.5769L19.3097 40.3658C19.0494 40.2168 18.9589 39.8855 19.1079 39.6252C19.2568 39.3648 19.5882 39.2744 19.8485 39.4233L21.9658 40.6344C22.2262 40.7834 22.3167 41.1147 22.1677 41.375C22.0675 41.5504 21.8837 41.6493 21.6958 41.6493V41.6479Z" fill="white"/>
<path d="M22.57 44.6179C22.4781 44.6179 22.3863 44.5943 22.3013 44.5469L19.3097 42.8374C19.0494 42.6885 18.9589 42.3572 19.1079 42.0968C19.2568 41.8365 19.5882 41.746 19.8485 41.895L22.8401 43.6045C23.1004 43.7534 23.1909 44.0847 23.0419 44.3451C22.9417 44.5205 22.7579 44.6193 22.57 44.6193V44.6179Z" fill="white"/>
<path d="M44.8652 42.3743C44.5659 42.3743 44.3223 42.1307 44.3223 41.8314V33.6738C44.3223 33.3745 44.5659 33.1309 44.8652 33.1309C45.1645 33.1309 45.4081 33.3745 45.4081 33.6738V41.8314C45.4081 42.1307 45.1645 42.3743 44.8652 42.3743Z" fill="white"/>
<path d="M43.7058 35.7629C43.5178 35.7629 43.3341 35.6641 43.2339 35.4886C43.0849 35.2283 43.1754 34.897 43.4357 34.7481L44.5953 34.0854C44.8556 33.9365 45.187 34.027 45.3359 34.2873C45.4849 34.5476 45.3944 34.8789 45.1341 35.0279L43.9744 35.6905C43.8895 35.7392 43.7963 35.7615 43.7058 35.7615V35.7629Z" fill="white"/>
<path d="M43.0583 38.2443C42.8704 38.2443 42.6866 38.1455 42.5864 37.9701C42.4374 37.7097 42.5279 37.3784 42.7882 37.2295L44.5966 36.1952C44.8569 36.0476 45.1882 36.1367 45.3372 36.397C45.4861 36.6573 45.3956 36.9886 45.1353 37.1376L43.327 38.1719C43.2421 38.2206 43.1488 38.2429 43.0583 38.2429V38.2443Z" fill="white"/>
<path d="M42.3122 40.7793C42.1243 40.7793 41.9405 40.6805 41.8403 40.5051C41.6913 40.2447 41.7818 39.9134 42.0422 39.7645L44.5966 38.3042C44.857 38.1552 45.1883 38.2457 45.3372 38.506C45.4862 38.7663 45.3957 39.0977 45.1354 39.2466L42.5809 40.7069C42.496 40.7556 42.4027 40.7779 42.3122 40.7779V40.7793Z" fill="white"/>
<path d="M46.0622 35.7635C45.9704 35.7635 45.8785 35.7398 45.7936 35.6925L44.634 35.0298C44.3736 34.8809 44.2831 34.5495 44.4321 34.2892C44.5811 34.0289 44.9124 33.9384 45.1727 34.0874L46.3323 34.75C46.5926 34.899 46.6831 35.2303 46.5342 35.4906C46.4339 35.666 46.2502 35.7648 46.0622 35.7648V35.7635Z" fill="white"/>
<path d="M46.711 38.2445C46.6191 38.2445 46.5272 38.2209 46.4423 38.1735L44.634 37.1392C44.3736 36.9902 44.2831 36.6589 44.4321 36.3986C44.5811 36.1383 44.9124 36.0478 45.1727 36.1967L46.981 37.2311C47.2413 37.38 47.3318 37.7113 47.1829 37.9717C47.0826 38.1471 46.8989 38.2459 46.711 38.2459V38.2445Z" fill="white"/>
<path d="M47.4571 40.7789C47.3652 40.7789 47.2734 40.7552 47.1884 40.7079L44.634 39.2476C44.3736 39.0986 44.2831 38.7673 44.4321 38.507C44.5811 38.2467 44.9124 38.1562 45.1727 38.3051L47.7272 39.7654C47.9875 39.9144 48.078 40.2457 47.929 40.506C47.8288 40.6814 47.645 40.7803 47.4571 40.7803V40.7789Z" fill="white"/>
<path d="M31.4628 39.3188C31.1635 39.3188 30.9199 39.0752 30.9199 38.7759V33.4052C30.9199 33.1059 31.1635 32.8623 31.4628 32.8623C31.7621 32.8623 32.0058 33.1059 32.0058 33.4052V38.7759C32.0058 39.0752 31.7621 39.3188 31.4628 39.3188Z" fill="white"/>
<path d="M30.3044 35.4943C30.1165 35.4943 29.9327 35.3955 29.8325 35.2201C29.6835 34.9598 29.774 34.6285 30.0343 34.4795L31.194 33.8169C31.4543 33.6679 31.7856 33.7584 31.9345 34.0187C32.0835 34.279 31.993 34.6104 31.7327 34.7593L30.5731 35.4219C30.4882 35.4707 30.3949 35.4929 30.3044 35.4929V35.4943Z" fill="white"/>
<path d="M29.656 37.9754C29.468 37.9754 29.2843 37.8766 29.1841 37.7012C29.0351 37.4408 29.1256 37.1095 29.3859 36.9606L31.1942 35.9262C31.4546 35.7773 31.7859 35.8678 31.9348 36.1281C32.0838 36.3884 31.9933 36.7197 31.733 36.8687L29.9246 37.903C29.8397 37.9517 29.7465 37.974 29.656 37.974V37.9754Z" fill="white"/>
<path d="M32.6599 35.4949C32.568 35.4949 32.4761 35.4712 32.3912 35.4239L31.2316 34.7613C30.9713 34.6123 30.8808 34.281 31.0298 34.0207C31.1787 33.7604 31.51 33.6699 31.7703 33.8188L32.93 34.4815C33.1903 34.6304 33.2808 34.9617 33.1318 35.222C33.0316 35.3974 32.8478 35.4949 32.6599 35.4949Z" fill="white"/>
<path d="M33.3086 37.976C33.2167 37.976 33.1249 37.9523 33.0399 37.905L31.2316 36.8706C30.9713 36.7217 30.8808 36.3904 31.0298 36.13C31.1787 35.8697 31.51 35.7792 31.7703 35.9282L33.5787 36.9625C33.839 37.1115 33.9295 37.4428 33.7805 37.7031C33.6803 37.8785 33.4965 37.9774 33.3086 37.9774V37.976Z" fill="white"/>
<path d="M25.5976 42.0063C25.2983 42.0063 25.0547 41.7627 25.0547 41.4634V36.0927C25.0547 35.7934 25.2983 35.5498 25.5976 35.5498C25.8969 35.5498 26.1405 35.7934 26.1405 36.0927V41.4634C26.1405 41.7627 25.8969 42.0063 25.5976 42.0063Z" fill="white"/>
<path d="M24.4382 38.1809C24.2503 38.1809 24.0665 38.082 23.9663 37.9066C23.8173 37.6463 23.9078 37.315 24.1681 37.166L25.3277 36.5034C25.5881 36.3544 25.9194 36.4449 26.0683 36.7052C26.2173 36.9656 26.1268 37.2969 25.8665 37.4458L24.7069 38.1085C24.622 38.1572 24.5287 38.1795 24.4382 38.1795V38.1809Z" fill="white"/>
<path d="M23.7898 40.6619C23.6018 40.6619 23.4181 40.5631 23.3178 40.3877C23.1689 40.1274 23.2594 39.796 23.5197 39.6471L25.328 38.6128C25.5883 38.4638 25.9197 38.5543 26.0686 38.8146C26.2176 39.0749 26.1271 39.4063 25.8668 39.5552L24.0584 40.5895C23.9735 40.6383 23.8802 40.6605 23.7898 40.6605V40.6619Z" fill="white"/>
<path d="M26.7937 38.1804C26.7018 38.1804 26.6099 38.1568 26.525 38.1094L25.3654 37.4468C25.1051 37.2979 25.0146 36.9665 25.1635 36.7062C25.3125 36.4459 25.6438 36.3554 25.9041 36.5044L27.0638 37.167C27.3241 37.316 27.4146 37.6473 27.2656 37.9076C27.1654 38.083 26.9816 38.1818 26.7937 38.1818V38.1804Z" fill="white"/>
<path d="M27.4424 40.6615C27.3505 40.6615 27.2586 40.6378 27.1737 40.5905L25.3654 39.5562C25.1051 39.4072 25.0146 39.0759 25.1635 38.8156C25.3125 38.5553 25.6438 38.4648 25.9041 38.6137L27.7125 39.6481C27.9728 39.797 28.0633 40.1283 27.9143 40.3887C27.8141 40.5641 27.6303 40.6629 27.4424 40.6629V40.6615Z" fill="white"/>
<path d="M23.9624 34.3162C23.8524 34.3162 23.741 34.2828 23.6436 34.2132C23.4014 34.0378 23.3457 33.6981 23.5225 33.4545L35.2703 17.2241C35.3719 17.0835 35.5348 17 35.7088 17C35.8828 17 36.0457 17.0835 36.1473 17.2227L47.8952 33.3418C48.072 33.584 48.0191 33.9237 47.7755 34.1004C47.5346 34.2759 47.1936 34.2243 47.0168 33.9807L35.7116 18.4673L24.4023 34.0907C24.2965 34.2369 24.1308 34.3148 23.9624 34.3148V34.3162Z" fill="white"/>
<path d="M37.7645 25.3411C37.5961 25.3411 37.4304 25.2617 37.3246 25.1183L35.8824 23.1388L34.0101 24.0325C33.7734 24.1453 33.4894 24.0729 33.3363 23.8599L32.1321 22.1935C31.9567 21.9499 32.011 21.6117 32.2546 21.4349C32.4982 21.2595 32.8365 21.3137 33.0133 21.5574L33.9516 22.8562L35.8226 21.9639C36.0592 21.8511 36.3418 21.9235 36.4949 22.1337L37.933 24.1091L39.9014 23.1388C40.1701 23.0065 40.4958 23.1165 40.6281 23.3852C40.7603 23.6539 40.6503 23.9796 40.3817 24.1118L38.0026 25.284C37.926 25.3216 37.8439 25.3397 37.7631 25.3397L37.7645 25.3411Z" fill="white"/>
<path d="M16.5434 34.3163C16.4334 34.3163 16.3221 34.2829 16.2246 34.2133C15.9824 34.0379 15.9267 33.6982 16.1035 33.4546L25.4222 20.5806C25.5238 20.44 25.6867 20.3564 25.8607 20.3564C26.0347 20.3564 26.1976 20.44 26.2992 20.5792L28.7869 23.9926C28.9637 24.2348 28.9108 24.5745 28.6671 24.7513C28.4249 24.9281 28.0852 24.8752 27.9085 24.6329L25.8607 21.8237L16.9833 34.0908C16.8775 34.237 16.7119 34.3149 16.5434 34.3149V34.3163Z" fill="white"/>
<path d="M26.6693 27.1966C26.5022 27.1966 26.3366 27.1186 26.2294 26.9739L25.4108 25.8504L24.3709 26.346C24.1343 26.4588 23.8503 26.3864 23.6972 26.1734L22.9329 25.1154C22.7575 24.8718 22.8118 24.5335 23.0554 24.3567C23.2976 24.1813 23.6373 24.2356 23.8141 24.4792L24.3125 25.1697L25.351 24.6741C25.5876 24.5614 25.8702 24.6338 26.0233 24.844L27.1078 26.3321C27.2846 26.5743 27.2303 26.914 26.9881 27.0908C26.892 27.1604 26.7793 27.1952 26.6693 27.1952V27.1966Z" fill="white"/>
<path d="M33.6646 41.0787C33.4196 41.0787 33.1969 40.9117 33.137 40.6625C33.0674 40.3716 33.247 40.0778 33.5394 40.0082C35.7055 39.489 35.7222 38.4727 35.743 37.1851C35.7653 35.8125 35.7932 34.1057 38.995 33.844C39.517 33.8009 39.833 33.6491 39.9346 33.3916C40.355 32.3308 38.3532 29.4241 36.7955 27.698C36.595 27.4752 36.6131 27.1314 36.8358 26.9309C37.0572 26.7304 37.4024 26.7472 37.6029 26.9699C38.3045 27.7467 41.7624 31.7294 40.9453 33.7925C40.7615 34.2547 40.2896 34.8282 39.0841 34.9257C36.8637 35.1067 36.8511 35.8946 36.8303 37.2018C36.808 38.5298 36.7788 40.3479 33.7927 41.0634C33.751 41.0732 33.7078 41.0787 33.666 41.0787H33.6646Z" fill="white"/>
<path d="M35.7093 46.4854C26.5187 46.4854 24.6338 45.8339 24.4835 44.7077C24.3401 43.6358 25.6473 43.3713 26.7999 43.1374C27.2802 43.0399 28.4064 42.813 28.4969 42.5778C28.4969 42.5778 28.5052 42.497 28.3786 42.3049C28.0556 41.8135 28.1948 41.414 28.3076 41.2191C29.1414 39.7671 35.2597 39.9258 37.8698 40.0623C39.6587 40.0692 40.9561 41.1982 41.048 42.2534C41.1037 42.9021 40.7222 43.672 39.4819 43.8905C38.7789 44.0144 38.6438 44.3235 38.4183 44.8371C38.1135 45.5332 37.6972 46.4854 35.7093 46.4854ZM25.625 44.5782C26.0955 44.9179 28.1057 45.3981 35.7093 45.3981C36.9859 45.3981 37.1599 45.0014 37.423 44.4C37.6736 43.8279 38.016 43.0441 39.2926 42.82C39.5543 42.7741 39.9914 42.6515 39.9649 42.3467C39.9218 41.8567 39.0782 41.1467 37.8531 41.1467C37.8434 41.1467 37.8336 41.1467 37.8253 41.1467C33.7075 40.9295 29.8834 41.1899 29.2904 41.7147C29.5911 42.1755 29.6607 42.6056 29.4992 42.9954C29.179 43.7624 28.128 43.9754 27.0143 44.2009C26.5786 44.2886 25.8881 44.4292 25.6236 44.5782H25.625Z" fill="white"/>
</g>
<defs>
<clipPath id="clip0_2002_6709">
<rect width="32" height="29.4859" fill="white" transform="translate(16 17)"/>
</clipPath>
</defs>
</svg>
