<svg width="64" height="64" viewBox="0 0 64 64" fill="none" xmlns="http://www.w3.org/2000/svg">
<circle cx="32" cy="32" r="32" fill="#0093D0"/>
<g clip-path="url(#clip0_2002_6729)">
<path d="M33.2992 34.1302H30.6264C30.3284 34.1302 30.0858 33.8876 30.0858 33.5895C30.0858 33.2915 30.3284 33.0489 30.6264 33.0489H33.2992C34.0021 33.0489 34.7077 32.9602 35.3939 32.7869C35.5492 32.7467 35.5977 32.5637 35.6088 32.5096C35.6351 32.3737 35.6143 32.1755 35.4688 32.0674L34.7936 31.5683C34.4374 31.3049 34.0284 31.1663 33.6097 31.1663H21.8844C21.5864 31.1663 21.3438 30.9237 21.3438 30.6256C21.3438 30.3276 21.5864 30.085 21.8844 30.085H33.6084C34.2599 30.085 34.8907 30.2971 35.4341 30.6977L36.1092 31.1968C36.564 31.5323 36.783 32.1298 36.6679 32.7175C36.5584 33.2776 36.1716 33.7046 35.6587 33.8349C34.8851 34.0304 34.0908 34.1302 33.2978 34.1302H33.2992Z" fill="white"/>
<path d="M28.3225 37.7388H27.2592C27.1011 37.7388 26.9514 37.6695 26.8488 37.5503C26.7462 37.4297 26.7005 37.2716 26.7254 37.115L27.2897 33.5078C27.3354 33.2125 27.6127 33.0115 27.9079 33.0573C28.2032 33.103 28.4042 33.3803 28.3585 33.6756L27.8913 36.6589H28.2351L30.0983 33.3276C30.2439 33.067 30.5738 32.9741 30.8344 33.1197C31.0951 33.2652 31.1879 33.5952 31.0424 33.8558L29.1182 37.2952C28.9643 37.5697 28.6593 37.7402 28.3225 37.7402V37.7388Z" fill="white"/>
<path d="M30.8455 31.1665H28.0979C27.8289 31.1665 27.6002 30.9683 27.5628 30.7021L26.9985 26.7317C26.9764 26.5765 27.0235 26.4198 27.1261 26.302C27.2287 26.1841 27.3784 26.1162 27.535 26.1162H28.6108C28.9491 26.1162 29.2554 26.3034 29.4093 26.6056L31.3294 30.3819C31.4139 30.5496 31.407 30.7492 31.3086 30.91C31.2101 31.0709 31.0355 31.1679 30.8483 31.1679L30.8455 31.1665ZM28.5678 30.0852H29.9638L28.4958 27.1961H28.1575L28.5678 30.0852Z" fill="white"/>
<path d="M25.6778 34.131H24.2583C22.2994 34.131 20.5721 32.5936 19.9205 31.9323C19.7015 31.7105 19.5504 31.4304 19.4825 31.1255L19.0042 28.9739C18.9681 28.8145 19.0083 28.6468 19.1109 28.5178C19.2135 28.3903 19.3688 28.3154 19.5324 28.3154H20.5984C20.7717 28.3154 20.9339 28.3986 21.0351 28.5386L22.3216 30.3089C22.4977 30.5501 22.4436 30.8884 22.2024 31.0645C21.9612 31.2391 21.6229 31.1865 21.4468 30.9452L20.3226 29.3981H20.2047L20.536 30.8912C20.5596 30.9979 20.6123 31.0964 20.6885 31.1726C21.1224 31.6134 22.6626 33.0496 24.2569 33.0496H25.6764C25.9745 33.0496 26.2171 33.2923 26.2171 33.5903C26.2171 33.8884 25.9745 34.131 25.6764 34.131H25.6778Z" fill="white"/>
<path d="M47.4593 40.8524H41.0103C40.7122 40.8524 40.4696 40.6098 40.4696 40.3117C40.4696 39.699 39.9719 39.2013 39.3592 39.2013C38.7464 39.2013 38.2488 39.699 38.2488 40.3117C38.2488 40.6098 38.0062 40.8524 37.7081 40.8524H16.5407C16.2426 40.8524 16 40.6098 16 40.3117V23.5416C16 23.2436 16.2426 23.001 16.5407 23.001H37.7067C38.0048 23.001 38.2474 23.2436 38.2474 23.5416C38.2474 24.1544 38.7451 24.6521 39.3578 24.6521C39.9705 24.6521 40.4682 24.1544 40.4682 23.5416C40.4682 23.2436 40.7108 23.001 41.0089 23.001H47.458C47.756 23.001 47.9986 23.2436 47.9986 23.5416V40.3117C47.9986 40.6098 47.756 40.8524 47.458 40.8524H47.4593ZM41.483 39.7711H46.9187V24.0823H41.483C41.2418 25.0305 40.3809 25.7334 39.3592 25.7334C38.3375 25.7334 37.4766 25.0305 37.2354 24.0823H17.0813V39.7711H37.234C37.4752 38.8228 38.3361 38.12 39.3578 38.12C40.3795 38.12 41.2404 38.8228 41.4816 39.7711H41.483Z" fill="white"/>
<path d="M39.359 39.2016C39.061 39.2016 38.8184 38.959 38.8184 38.6609V25.193C38.8184 24.8949 39.061 24.6523 39.359 24.6523C39.6571 24.6523 39.8997 24.8949 39.8997 25.193V38.6609C39.8997 38.959 39.6571 39.2016 39.359 39.2016Z" fill="white"/>
<path d="M44.8272 33.4007H41.9909C41.6928 33.4007 41.4502 33.158 41.4502 32.86C41.4502 32.5619 41.6928 32.3193 41.9909 32.3193H44.8272C45.1253 32.3193 45.3679 32.5619 45.3679 32.86C45.3679 33.158 45.1253 33.4007 44.8272 33.4007Z" fill="white"/>
<path d="M44.8272 35.7219H41.9909C41.6928 35.7219 41.4502 35.4793 41.4502 35.1813C41.4502 34.8832 41.6928 34.6406 41.9909 34.6406H44.8272C45.1253 34.6406 45.3679 34.8832 45.3679 35.1813C45.3679 35.4793 45.1253 35.7219 44.8272 35.7219Z" fill="white"/>
<path d="M44.8272 28.7581H41.9909C41.6928 28.7581 41.4502 28.5155 41.4502 28.2174C41.4502 27.9194 41.6928 27.6768 41.9909 27.6768H44.8272C45.1253 27.6768 45.3679 27.9194 45.3679 28.2174C45.3679 28.5155 45.1253 28.7581 44.8272 28.7581Z" fill="white"/>
<path d="M44.8272 31.0794H41.9909C41.6928 31.0794 41.4502 30.8368 41.4502 30.5387C41.4502 30.2406 41.6928 29.998 41.9909 29.998H44.8272C45.1253 29.998 45.3679 30.2406 45.3679 30.5387C45.3679 30.8368 45.1253 31.0794 44.8272 31.0794Z" fill="white"/>
</g>
<defs>
<clipPath id="clip0_2002_6729">
<rect width="32" height="17.8514" fill="white" transform="translate(16 23)"/>
</clipPath>
</defs>
</svg>
