<svg width="64" height="64" viewBox="0 0 64 64" fill="none" xmlns="http://www.w3.org/2000/svg">
<circle cx="32" cy="32" r="32" fill="#0093D0"/>
<g clip-path="url(#clip0_2002_6764)">
<path d="M19.5548 26.092L19.476 25.9281C19.2821 25.5227 19.1607 25.0847 19.1494 24.6355C19.1494 24.608 19.1494 24.5817 19.1494 24.5541C19.1494 23.229 19.9753 21.9864 21.2992 21.5222L21.4018 21.123C21.5094 20.7051 21.7334 20.3372 22.0375 20.0569C22.3415 19.7754 22.7244 19.5802 23.1499 19.5063C23.4152 19.46 23.6829 19.4375 23.9495 19.4375C24.8742 19.4375 25.7852 19.714 26.561 20.2396C27.7447 21.0429 28.4655 22.3243 28.5806 23.6945" stroke="white" stroke-width="0.875924" stroke-linecap="round" stroke-linejoin="round"/>
<path d="M22.9456 24.0146C23.0732 24.0885 23.2071 24.1523 23.346 24.2074C23.8791 24.4188 24.4597 24.4751 25.0228 24.3725L26.0176 24.1898C26.0927 24.1761 26.169 24.1686 26.2441 24.1686C26.6833 24.1686 27.0975 24.3988 27.3265 24.7855C27.4416 24.9794 27.5017 25.2009 27.5017 25.4261V25.5125V28.6958C27.5017 29.3878 27.2527 30.0573 26.8009 30.5816L26.1077 31.3862C25.5584 32.0231 24.76 32.3897 23.9191 32.3897C23.0783 32.3897 22.2787 32.0231 21.7306 31.3862L21.0373 30.5816C20.5856 30.0573 20.3366 29.3878 20.3366 28.6958L20.3291 27.7361" stroke="white" stroke-width="0.875924" stroke-linecap="round" stroke-linejoin="round"/>
<path d="M21.4655 22.2057L21.2979 21.5225" stroke="white" stroke-width="0.875924" stroke-linecap="round" stroke-linejoin="round"/>
<path d="M22.1075 31.8018L21.5519 32.9642C21.4531 33.172 21.2904 33.3434 21.0877 33.4535C21.0038 33.4998 20.915 33.5373 20.8199 33.5636L18.5638 34.1893C18.515 34.203 18.4649 34.2168 18.4174 34.2331C17.3487 34.5897 16.6342 35.602 16.5829 36.7282L16.4365 39.9641" stroke="white" stroke-width="0.875924" stroke-linecap="round" stroke-linejoin="round"/>
<path d="M21.4404 33.2607C21.4404 34.5133 22.5041 35.5294 23.8154 35.5294C24.3748 35.5294 24.8891 35.3442 25.2945 35.0364" stroke="white" stroke-width="0.875924" stroke-linecap="round" stroke-linejoin="round"/>
<path d="M34.9032 35.4756V36.7319C34.9032 38.4275 33.5292 39.8014 31.8337 39.8014C30.282 39.8014 28.9994 38.6502 28.793 37.1561" stroke="white" stroke-width="0.875924" stroke-linecap="round" stroke-linejoin="round"/>
<path d="M30.2999 39.583V39.837C30.2999 40.2875 30.0747 40.7079 29.7005 40.957C29.5329 41.0696 29.3539 41.1609 29.1675 41.231C28.931 41.3186 28.6832 41.3724 28.4305 41.3899L28.1727 41.4074L27.7985 41.4325C26.3896 41.5276 25.2959 42.6975 25.2959 44.109V44.8285" stroke="white" stroke-width="0.875924" stroke-linecap="round" stroke-linejoin="round"/>
<path d="M33.3457 39.583V39.837C33.3457 40.2875 33.5709 40.7079 33.9451 40.957C34.1128 41.0696 34.2917 41.1609 34.4781 41.231C34.7146 41.3186 34.9624 41.3724 35.2152 41.3899L35.4729 41.4074L35.8471 41.4325C37.2561 41.5276 38.3497 42.6975 38.3497 44.109V45.2653" stroke="white" stroke-width="0.875924" stroke-linecap="round" stroke-linejoin="round"/>
<path d="M29.4043 41.1279C29.9386 41.8987 30.8283 42.4043 31.8381 42.4043C32.8479 42.4043 33.7301 41.9037 34.2644 41.1392" stroke="white" stroke-width="0.875924" stroke-linecap="round" stroke-linejoin="round"/>
<path d="M35.0107 34.7988C35.0107 35.0303 34.9882 35.2568 34.9456 35.4758C34.1122 34.541 32.6682 34.4021 31.6684 35.2142C31.238 35.5634 30.7061 35.746 30.1668 35.746C29.9028 35.746 29.6363 35.7023 29.3797 35.6122L28.0446 35.1454C28.0333 35.0315 28.0283 34.9164 28.0283 34.7988C28.0283 32.8705 29.5912 31.3076 31.5195 31.3076C33.4478 31.3076 35.0107 32.8705 35.0107 34.7988Z" stroke="white" stroke-width="0.875924" stroke-linecap="round" stroke-linejoin="round"/>
<path d="M39.3699 31.0811V32.2923C39.3699 32.6702 39.1309 33.0068 38.7743 33.1307L37.1738 33.6901" stroke="white" stroke-width="0.875924" stroke-linecap="round" stroke-linejoin="round"/>
<path d="M43.1709 31.0811V32.2923C43.1709 32.6702 43.4099 33.0068 43.7665 33.1307L46.547 34.1017C47.1551 34.3145 47.5618 34.8876 47.5618 35.5307V39.8015" stroke="white" stroke-width="0.875924" stroke-linecap="round" stroke-linejoin="round"/>
<path d="M38.3574 33.3584C39.0569 33.8739 40.103 34.2018 41.2705 34.2018C42.438 34.2018 43.4841 33.8752 44.1836 33.3596" stroke="white" stroke-width="0.875924" stroke-linecap="round" stroke-linejoin="round"/>
<path d="M45.04 36.7197V37.6007" stroke="white" stroke-width="0.875924" stroke-linecap="round" stroke-linejoin="round"/>
<path d="M37.5 36.7197V37.6007" stroke="white" stroke-width="0.875924" stroke-linecap="round" stroke-linejoin="round"/>
<path d="M43.1707 24.8165C43.5523 25.3596 44.1692 25.7024 44.8474 25.7287V27.8985C44.8474 29.8743 43.2457 31.476 41.2699 31.476C39.2941 31.476 37.6924 29.8743 37.6924 27.8985V26.3544L37.8826 26.3606C40.1087 26.4382 42.2034 25.3083 43.3634 23.4062" stroke="white" stroke-width="0.875924" stroke-linecap="round" stroke-linejoin="round"/>
<path d="M35.6855 30.493V25.2688C35.6855 22.2281 38.1506 19.7617 41.1926 19.7617C44.2333 19.7617 46.6997 22.2268 46.6997 25.2688V32.584" stroke="white" stroke-width="0.875924" stroke-linecap="round" stroke-linejoin="round"/>
<path d="M20.0107 38.0391V39.9648" stroke="white" stroke-width="0.875924" stroke-linecap="round" stroke-linejoin="round"/>
</g>
<defs>
<clipPath id="clip0_2002_6764">
<rect width="32" height="26.7032" fill="white" transform="translate(16 19)"/>
</clipPath>
</defs>
</svg>
