<svg width="64" height="64" viewBox="0 0 64 64" fill="none" xmlns="http://www.w3.org/2000/svg">
<circle cx="32" cy="32" r="32" fill="#0093D0"/>
<g clip-path="url(#clip0_2002_5369)">
<g clip-path="url(#clip1_2002_5369)">
<path d="M27.4308 30.5211C27.2508 30.5211 27.079 30.4304 26.9787 30.2737C26.9223 30.1844 25.5961 28.0693 26.1719 25.7123C26.5293 24.2514 27.527 23.0406 29.1378 22.1116C29.3934 21.9645 29.7218 22.0511 29.8703 22.3081C30.0187 22.5651 29.9307 22.8922 29.6737 23.0406C28.3296 23.8157 27.5037 24.797 27.2164 25.9583C27.0007 26.8297 27.1189 27.6817 27.3126 28.3524C28.5798 24.8534 31.3958 24.327 31.5305 24.305C31.8232 24.2542 32.0994 24.4507 32.1489 24.742C32.1984 25.0334 32.0046 25.3096 31.7133 25.3605C31.5813 25.3852 28.7062 25.9652 27.9572 30.0813C27.9173 30.2985 27.7497 30.4689 27.5325 30.5115C27.4982 30.5184 27.4638 30.5211 27.4295 30.5211H27.4308Z" fill="white"/>
<path d="M33.8919 23.5894C33.7559 23.5894 33.6212 23.5386 33.5167 23.4355C33.3051 23.228 33.3023 22.8885 33.5099 22.6769C34.9089 21.2517 37.6329 21.4441 39.315 21.7382C38.3379 20.7267 37.057 20.2718 35.493 20.3804C33.8933 20.4917 32.5794 21.1706 32.5657 21.1775C32.3032 21.3149 31.9802 21.2132 31.8428 20.9521C31.7054 20.6896 31.8057 20.3666 32.0682 20.2292C32.1273 20.1976 38.0768 17.1452 41.0673 22.3086C41.1773 22.4982 41.1608 22.736 41.0247 22.9078C40.89 23.0796 40.6633 23.1524 40.4516 23.0906C39.1886 22.7195 35.6181 22.0584 34.274 23.4273C34.1695 23.5345 34.0307 23.5881 33.8919 23.5881V23.5894Z" fill="white"/>
<path d="M31.916 21.6858C31.8886 21.6858 31.8597 21.683 31.8322 21.6789C31.5395 21.6322 31.3402 21.3587 31.3869 21.066C31.6687 19.2862 33.3715 17.9132 34.6249 17.1271C33.1378 16.9526 31.9834 17.178 31.1808 17.8019C30.0057 18.7145 29.9796 20.2304 29.9782 20.2455C29.9755 20.5396 29.7363 20.7787 29.4422 20.7787H29.4395C29.144 20.7787 28.9062 20.5396 28.9062 20.2441C28.9062 20.1616 28.9241 18.206 30.5101 16.9663C31.8295 15.9342 33.7879 15.7294 36.3304 16.3575C36.553 16.4125 36.7152 16.6021 36.7358 16.8303C36.7564 17.0584 36.6286 17.2742 36.4197 17.3676C36.384 17.3841 32.7984 19.0031 32.4452 21.235C32.4039 21.4989 32.1758 21.6872 31.916 21.6872V21.6858Z" fill="white"/>
<path d="M22.4477 23.7901C22.3392 23.7901 22.2306 23.7571 22.1385 23.6911C21.9571 23.5633 21.8746 23.3366 21.9282 23.1222C21.9434 23.0644 23.4675 17.3348 29.564 18.7751C29.8527 18.8439 30.0299 19.1325 29.9626 19.4197C29.8939 19.7083 29.6066 19.8856 29.318 19.8183C26.0567 19.0473 24.3814 20.6731 23.5898 21.9773C25.7393 20.9177 27.3472 20.9026 27.4283 20.9026C27.7238 20.9026 27.9643 21.1431 27.9643 21.4386C27.9643 21.7341 27.7252 21.9732 27.4297 21.9746C27.4063 21.9746 25.2885 22.0089 22.7446 23.6994C22.6539 23.7585 22.5508 23.7887 22.4477 23.7887V23.7901Z" fill="white"/>
<path d="M38.8477 29.3333C38.6979 29.3333 38.5522 29.2701 38.4477 29.1546C35.6084 25.9868 33.5524 26.0019 33.5345 26.0019C33.2335 26.0211 32.9861 25.7889 32.9724 25.4934C32.9573 25.1979 33.1854 24.9464 33.4809 24.9313C33.573 24.9258 35.5245 24.8612 38.2306 27.3969C37.9722 25.9689 37.0418 23.8868 33.841 23.5858C33.5469 23.5583 33.3297 23.2972 33.3572 23.0017C33.3847 22.7076 33.6472 22.4905 33.9413 22.518C39.8496 23.0746 39.3864 28.7891 39.3809 28.8468C39.3617 29.0584 39.2174 29.2398 39.0153 29.3058C38.9604 29.3237 38.904 29.3333 38.8477 29.3333Z" fill="white"/>
<path d="M29.6635 39.3088C29.5797 39.3088 29.4958 39.2896 29.4175 39.2483C29.155 39.1123 29.0519 38.7879 29.188 38.5254C31.9174 33.2604 29.9975 25.9901 29.9782 25.9173C29.9012 25.6314 30.0703 25.3373 30.3548 25.2604C30.6406 25.182 30.9347 25.3511 31.0117 25.6369C31.0969 25.9503 33.0622 33.3786 30.139 39.0188C30.0442 39.203 29.8559 39.3088 29.6621 39.3088H29.6635Z" fill="white"/>
<path d="M33.5841 40.2814C33.5278 40.2814 33.4687 40.2718 33.4123 40.2526C33.132 40.1577 32.9822 39.854 33.077 39.5736C35.2704 33.0992 33.0715 27.9536 33.0495 27.9014C32.9299 27.6307 33.0536 27.3146 33.3257 27.195C33.5979 27.0754 33.9126 27.1991 34.0322 27.4713C34.1311 27.6953 36.4194 33.0538 34.0926 39.9172C34.017 40.1399 33.8081 40.2814 33.5855 40.2814H33.5841Z" fill="white"/>
<path d="M31.622 37.8409C31.5821 37.8409 31.5423 37.8368 31.501 37.8272L30.5706 37.6128C30.282 37.5468 30.1019 37.2596 30.1679 36.971C30.2339 36.6824 30.5211 36.5023 30.8097 36.5683L31.7402 36.7827C32.0288 36.8487 32.2088 37.1359 32.1428 37.4245C32.0865 37.6733 31.8652 37.8409 31.6206 37.8409H31.622Z" fill="white"/>
<path d="M32.3166 31.4548H31.2762C30.9807 31.4548 30.7402 31.2143 30.7402 30.9188C30.7402 30.6233 30.9807 30.3828 31.2762 30.3828H32.3166C32.6121 30.3828 32.8526 30.6233 32.8526 30.9188C32.8526 31.2143 32.6121 31.4548 32.3166 31.4548Z" fill="white"/>
<path d="M34.5705 34.9386C34.5224 34.9386 34.4715 34.9317 34.4234 34.918L33.5081 34.6569C33.2236 34.5758 33.0587 34.2789 33.1398 33.9944C33.2209 33.71 33.5191 33.545 33.8022 33.6261L34.7175 33.8872C35.002 33.9683 35.1669 34.2652 35.0858 34.5497C35.0185 34.7847 34.8041 34.9386 34.5705 34.9386Z" fill="white"/>
<path d="M18.7248 45.0222C17.7271 45.0222 16.7994 44.5288 16.1109 43.6341C15.9308 43.3991 15.9748 43.0624 16.2084 42.8824C16.4434 42.7023 16.7802 42.7463 16.9602 42.9799C17.4412 43.6053 18.0679 43.9502 18.7248 43.9502C19.3818 43.9502 20.0085 43.6053 20.4895 42.9799C20.6695 42.7449 21.0062 42.701 21.2412 42.8824C21.4763 43.0624 21.5202 43.3991 21.3388 43.6341C20.6503 44.5288 19.7212 45.0222 18.7248 45.0222Z" fill="white"/>
<path d="M23.1037 45.0222C22.106 45.0222 21.1783 44.5288 20.4898 43.6341C20.3097 43.3991 20.3537 43.0624 20.5873 42.8824C20.8224 42.7023 21.1591 42.7463 21.3391 42.9799C21.8201 43.6053 22.4468 43.9502 23.1037 43.9502C23.7607 43.9502 24.3874 43.6053 24.8684 42.9799C25.0484 42.7449 25.3851 42.701 25.6202 42.8824C25.8552 43.0624 25.8991 43.3991 25.7177 43.6341C25.0292 44.5288 24.1001 45.0222 23.1037 45.0222Z" fill="white"/>
<path d="M27.4817 45.0222C26.4839 45.0222 25.5562 44.5288 24.8677 43.6341C24.6877 43.3991 24.7316 43.0624 24.9653 42.8824C25.2003 42.7023 25.537 42.7463 25.717 42.9799C26.1981 43.6053 26.8247 43.9502 27.4817 43.9502C28.1386 43.9502 28.7653 43.6053 29.2463 42.9799C29.4264 42.7449 29.7631 42.701 29.9981 42.8824C30.2331 43.0624 30.2771 43.3991 30.0957 43.6341C29.4071 44.5288 28.4781 45.0222 27.4817 45.0222Z" fill="white"/>
<path d="M31.8606 45.0222C30.8628 45.0222 29.9351 44.5288 29.2466 43.6341C29.0666 43.3991 29.1105 43.0624 29.3442 42.8824C29.5792 42.7023 29.9159 42.7463 30.0959 42.9799C30.577 43.6053 31.2037 43.9502 31.8606 43.9502C32.5175 43.9502 33.1442 43.6053 33.6252 42.9799C33.8053 42.7449 34.142 42.701 34.377 42.8824C34.612 43.0624 34.656 43.3991 34.4746 43.6341C33.786 44.5288 32.857 45.0222 31.8606 45.0222Z" fill="white"/>
<path d="M23.1037 48.0007C22.106 48.0007 21.1783 47.5073 20.4898 46.6126C20.3097 46.3776 20.3537 46.0409 20.5873 45.8609C20.8224 45.6808 21.1591 45.7248 21.3391 45.9585C21.8201 46.5838 22.4468 46.9287 23.1037 46.9287C23.7607 46.9287 24.3874 46.5838 24.8684 45.9585C25.0484 45.7234 25.3851 45.6795 25.6202 45.8609C25.8552 46.0409 25.8991 46.3776 25.7177 46.6126C25.0292 47.5073 24.1001 48.0007 23.1037 48.0007Z" fill="white"/>
<path d="M27.4817 48.0007C26.4839 48.0007 25.5562 47.5073 24.8677 46.6126C24.6877 46.3776 24.7316 46.0409 24.9653 45.8609C25.2003 45.6808 25.537 45.7248 25.717 45.9585C26.1981 46.5838 26.8247 46.9287 27.4817 46.9287C28.1386 46.9287 28.7653 46.5838 29.2463 45.9585C29.4264 45.7234 29.7631 45.6795 29.9981 45.8609C30.2331 46.0409 30.2771 46.3776 30.0957 46.6126C29.4071 47.5073 28.4781 48.0007 27.4817 48.0007Z" fill="white"/>
<path d="M31.8606 48.0007C30.8628 48.0007 29.9351 47.5073 29.2466 46.6126C29.0666 46.3776 29.1105 46.0409 29.3442 45.8609C29.5792 45.6808 29.9159 45.7248 30.0959 45.9585C30.577 46.5838 31.2037 46.9287 31.8606 46.9287C32.5175 46.9287 33.1442 46.5838 33.6252 45.9585C33.8053 45.7234 34.142 45.6795 34.377 45.8609C34.612 46.0409 34.656 46.3776 34.4746 46.6126C33.786 47.5073 32.857 48.0007 31.8606 48.0007Z" fill="white"/>
<path d="M36.2395 45.0222C35.2417 45.0222 34.314 44.5288 33.6255 43.6341C33.4455 43.3991 33.4894 43.0624 33.7231 42.8824C33.9581 42.7023 34.2948 42.7463 34.4748 42.9799C34.9559 43.6053 35.5826 43.9502 36.2395 43.9502C36.8964 43.9502 37.5231 43.6053 38.0041 42.9799C38.1842 42.7449 38.5209 42.701 38.7559 42.8824C38.9909 43.0624 39.0349 43.3991 38.8535 43.6341C38.1649 44.5288 37.2359 45.0222 36.2395 45.0222Z" fill="white"/>
<path d="M40.6194 45.0222C39.6216 45.0222 38.6939 44.5288 38.0054 43.6341C37.8254 43.3991 37.8693 43.0624 38.103 42.8824C38.338 42.7023 38.6747 42.7463 38.8547 42.9799C39.3357 43.6053 39.9624 43.9502 40.6194 43.9502C41.2763 43.9502 41.903 43.6053 42.384 42.9799C42.5641 42.7449 42.9008 42.701 43.1358 42.8824C43.3708 43.0624 43.4148 43.3991 43.2334 43.6341C42.5448 44.5288 41.6158 45.0222 40.6194 45.0222Z" fill="white"/>
<path d="M44.9983 45.0222C44.0005 45.0222 43.0728 44.5288 42.3843 43.6341C42.2043 43.3991 42.2482 43.0624 42.4819 42.8824C42.7169 42.7023 43.0536 42.7463 43.2336 42.9799C43.7147 43.6053 44.3413 43.9502 44.9983 43.9502C45.6552 43.9502 46.2819 43.6053 46.7629 42.9799C46.943 42.7449 47.2797 42.701 47.5147 42.8824C47.7497 43.0624 47.7937 43.3991 47.6123 43.6341C46.9237 44.5288 45.9947 45.0222 44.9983 45.0222Z" fill="white"/>
<path d="M40.8275 42.4495C40.587 42.4495 40.3685 42.2859 40.308 42.0427C39.838 40.1516 38.3826 38.5656 36.2111 37.5788C35.9417 37.4565 35.8222 37.1391 35.9445 36.8697C36.0668 36.6003 36.3843 36.4821 36.6536 36.6031C39.1288 37.7286 40.7959 39.5689 41.3484 41.7843C41.4198 42.0715 41.2453 42.3629 40.9581 42.4344C40.9141 42.4454 40.8715 42.4509 40.8289 42.4509L40.8275 42.4495Z" fill="white"/>
<path d="M22.8373 42.5619C22.7988 42.5619 22.7603 42.5578 22.7205 42.5496C22.4319 42.4863 22.2491 42.1991 22.3123 41.9105C23.1108 38.3029 27.0235 36.1507 30.3219 35.6779C30.6133 35.638 30.8868 35.8387 30.928 36.1328C30.9706 36.4255 30.7658 36.6976 30.4731 36.7389C27.5293 37.1608 24.0467 39.0326 23.3582 42.1414C23.3032 42.3915 23.0806 42.5619 22.8359 42.5619H22.8373Z" fill="white"/>
</g>
</g>
<defs>
<clipPath id="clip0_2002_5369">
<rect width="32" height="32" fill="white" transform="translate(16 16)"/>
</clipPath>
<clipPath id="clip1_2002_5369">
<rect width="31.7238" height="32" fill="white" transform="translate(16 16)"/>
</clipPath>
</defs>
</svg>
