<svg width="64" height="64" viewBox="0 0 64 64" fill="none" xmlns="http://www.w3.org/2000/svg">
<circle cx="32" cy="32" r="32" fill="#0093D0"/>
<g clip-path="url(#clip0_2002_6430)">
<g clip-path="url(#clip1_2002_6430)">
<path d="M24.4552 35.1007C25.4336 34.1222 25.3679 32.4698 24.307 31.4089C23.2472 30.3491 21.5938 30.2823 20.6153 31.2608C19.6368 32.2393 19.7036 33.8927 20.7634 34.9525C21.8243 36.0134 23.4767 36.0792 24.4552 35.1007Z" stroke="white" stroke-width="1.07341" stroke-linecap="round" stroke-linejoin="round"/>
<path d="M19.1279 44.8086V46.463C19.1279 47.0159 19.5765 47.4634 20.1294 47.4634C20.6822 47.4634 21.1298 47.0149 21.1298 46.463V44.8086" stroke="white" stroke-width="1.07341" stroke-linecap="round" stroke-linejoin="round"/>
<path d="M42.5105 39.127C43.2366 39.127 43.826 38.5387 43.826 37.8116C43.826 37.0855 43.2376 36.4962 42.5105 36.4962H36.5854C33.386 36.4962 29.2947 33.0099 25.0146 34.2012" stroke="white" stroke-width="1.07341" stroke-linecap="round" stroke-linejoin="round"/>
<path d="M20.0972 33.9189L19.3962 33.4359C18.5585 32.8684 17.4194 33.0864 16.8519 33.9241C16.2844 34.7618 16.5025 35.9009 17.3401 36.4684L25.1816 41.7854C26.1475 42.4405 27.2887 42.791 28.456 42.791H44.9755C45.9874 42.791 46.8073 41.971 46.8073 40.9592C46.8073 39.9473 45.9874 39.1274 44.9755 39.1274H34.5836" stroke="white" stroke-width="1.07341" stroke-linecap="round" stroke-linejoin="round"/>
<path d="M27.2355 36.0506C28.093 36.6327 28.3892 36.9436 30.1417 36.9436H31.2924C31.8953 36.9436 32.3845 37.4328 32.3845 38.0358C32.3845 38.6387 31.8953 39.128 31.2924 39.128H29.2488C28.2129 39.128 27.2 38.8171 26.3426 38.235L22.8125 35.793" stroke="white" stroke-width="1.07341" stroke-linecap="round" stroke-linejoin="round"/>
<path d="M26.3857 44.8086H43.9672C44.5242 44.8086 44.977 44.3569 44.977 43.7988C44.977 43.2418 44.5253 42.7891 43.9672 42.7891" stroke="white" stroke-width="1.07341" stroke-linecap="round" stroke-linejoin="round"/>
<path d="M28.4559 42.79H17.6133C17.0562 42.79 16.6035 43.2417 16.6035 43.7998C16.6035 44.3569 17.0552 44.8096 17.6133 44.8096H23.8921" stroke="white" stroke-width="1.07341" stroke-linecap="round" stroke-linejoin="round"/>
<path d="M40.4502 44.8086V46.463C40.4502 47.0159 40.8988 47.4634 41.4516 47.4634C42.0045 47.4634 42.452 47.0149 42.452 46.463V44.8086" stroke="white" stroke-width="1.07341" stroke-linecap="round" stroke-linejoin="round"/>
<path d="M20.8677 38.8594L18.5801 42.79" stroke="white" stroke-width="1.07341" stroke-linecap="round" stroke-linejoin="round"/>
<path d="M31.6719 17.6094V16.5381" stroke="white" stroke-width="1.07341" stroke-linecap="round" stroke-linejoin="round"/>
<path d="M31.6719 32.9247V26.624" stroke="white" stroke-width="1.07341" stroke-linecap="round" stroke-linejoin="round"/>
<path d="M20.0537 27.4307C20.8569 26.9092 21.9773 26.5847 23.2187 26.5847C24.7615 26.5847 26.1197 27.0865 26.9094 27.8449C27.142 28.0337 27.481 28.4676 27.481 28.4676C28.255 27.3744 29.8417 26.6244 31.6735 26.6244C33.5053 26.6244 35.1201 27.3869 35.8858 28.4958C35.8858 28.4958 36.1768 28.0577 36.4146 27.8626C37.2001 27.0927 38.5688 26.5837 40.1231 26.5837C41.3655 26.5837 42.489 26.9092 43.2922 27.4328C42.3909 22.0126 37.3201 17.6094 31.6735 17.6094" stroke="white" stroke-width="1.07341" stroke-linecap="round" stroke-linejoin="round"/>
<path d="M31.6699 17.6094C28.5268 20.3425 27.3074 24.2126 27.4774 28.4666" stroke="white" stroke-width="1.07341" stroke-linecap="round" stroke-linejoin="round"/>
<path d="M34.9873 22.3994C35.682 24.2583 35.9522 26.3134 35.8667 28.4675" stroke="white" stroke-width="1.07341" stroke-linecap="round" stroke-linejoin="round"/>
<path d="M31.6738 17.6094C32.5636 18.3834 33.3001 19.2482 33.8937 20.1881" stroke="white" stroke-width="1.07341" stroke-linecap="round" stroke-linejoin="round"/>
<path d="M20.0537 27.4328C20.955 22.0126 26.0268 17.6094 31.6724 17.6094" stroke="white" stroke-width="1.07341" stroke-linecap="round" stroke-linejoin="round"/>
</g>
</g>
<defs>
<clipPath id="clip0_2002_6430">
<rect width="32" height="32" fill="white" transform="translate(16 16)"/>
</clipPath>
<clipPath id="clip1_2002_6430">
<rect width="31.3449" height="32" fill="white" transform="translate(16 16)"/>
</clipPath>
</defs>
</svg>
