<svg width="64" height="64" viewBox="0 0 64 64" fill="none" xmlns="http://www.w3.org/2000/svg">
<circle cx="32" cy="32" r="32" fill="#0093D0"/>
<g clip-path="url(#clip0_2002_5696)">
<g clip-path="url(#clip1_2002_5696)">
<path d="M33.7657 34.3613C35.2039 34.7147 37.4818 34.3785 39.2753 34.307C41.5767 31.7344 43.8981 25.8008 44.0879 22.3197C44.2 20.2551 43.4271 18.3803 42.355 17.3516C41.9971 17.0081 41.6156 16.7721 41.2396 16.6781C40.9214 16.5977 40.5969 16.6239 40.2922 16.7803C39.5519 17.1617 38.8549 18.2239 38.3749 20.2171C37.4936 23.8799 35.9731 27.9088 32.6972 30.6677M26.8161 45.347C27.3512 45.121 30.0576 44.7577 30.6344 44.4214C36.6638 42.5728 38.6579 36.4286 31.9641 33.3036M31.9641 33.3036C33.9193 29.7384 31.7797 28.1249 28.153 25.7674M31.9641 33.3036C29.4809 35.8817 24.6863 36.8444 20.0897 36.6917M36.1241 26.3794C33.5325 21.5215 24.36 17.5938 19.5221 25.2169C19.137 26.3748 19.3765 26.8033 19.8737 26.8494C20.3718 26.8955 21.1293 26.5592 21.7801 26.1859C22.9688 25.5323 23.8945 25.3642 25.6852 25.3226C27.4751 25.282 29.1474 25.8343 29.8615 27.5518C30.5431 29.1897 29.65 30.1353 28.7731 31.2869C25.0687 34.0883 19.1876 32.227 18.4111 35.286C18.3858 35.3864 18.384 35.3692 18.2873 35.3981C16.2741 34.5782 16.6592 37.3615 16.6701 37.3841C16.9521 37.9762 17.6301 37.8587 17.9401 38.3531C20.2163 41.9897 23.6468 42.016 27.5492 41.1952C28.7343 40.9457 34.3189 39.9025 36.1458 38.2881M26.8314 45.6499C26.9914 46.1344 27.7752 46.4806 28.3799 46.6551C31.9126 47.6774 35.8683 47.8636 38.9164 45.4094C43.4823 41.733 40.8491 37.9672 39.8321 34.6469C43.6812 34.985 45.2296 39.8212 44.7062 42.0304C44.6448 42.2926 44.4595 43.7036 44.0491 44.8462C42.6931 48.6248 45.1709 46.5782 45.6599 45.4447C48.21 39.5328 48.3971 32.7323 41.1275 31.5527" stroke="white" stroke-linecap="round" stroke-linejoin="round"/>
</g>
</g>
<defs>
<clipPath id="clip0_2002_5696">
<rect width="32" height="32" fill="white" transform="translate(16 16)"/>
</clipPath>
<clipPath id="clip1_2002_5696">
<rect width="31.8969" height="32" fill="white" transform="translate(16 16)"/>
</clipPath>
</defs>
</svg>
