<svg width="64" height="64" viewBox="0 0 64 64" fill="none" xmlns="http://www.w3.org/2000/svg">
<circle cx="32" cy="32" r="32" fill="#0093D0"/>
<g clip-path="url(#clip0_2002_5727)">
<path d="M46.9116 30.3742C46.9116 24.9578 39.8286 20.5514 31.1199 20.5514C31.0746 20.5514 31.0293 20.5604 30.9886 20.5785C30.9206 20.5695 30.8572 20.5514 30.7893 20.5514C29.8971 20.5514 29.1861 21.3665 29.0593 22.4534L28.2124 22.4399H28.2079C28.1626 22.4399 28.1173 22.4489 28.0766 22.467C28.063 22.4716 28.0494 22.4851 28.0358 22.4942C28.0132 22.5078 27.986 22.5214 27.9679 22.5395C27.9543 22.5531 27.9453 22.5712 27.9362 22.5848C27.9226 22.6029 27.9045 22.621 27.8954 22.6482C27.8864 22.6663 27.8864 22.6844 27.8819 22.7025C27.8773 22.7252 27.8683 22.7478 27.8683 22.775C27.8683 23.6536 27.3701 24.3963 26.7814 24.3963C26.2696 24.3963 25.8303 23.8392 25.7216 23.1146H26.5459C26.7316 23.1146 26.8855 22.9607 26.8855 22.775C26.8855 22.5893 26.7316 22.4353 26.5459 22.4353H25.3548C25.1691 22.4353 25.0152 22.5893 25.0152 22.775C25.0152 23.4045 25.2099 23.9796 25.5314 24.3963H19.3407V23.1146H23.7788C23.9645 23.1146 24.1185 22.9607 24.1185 22.775C24.1185 22.5893 23.9645 22.4353 23.7788 22.4353H19.3407V20.1845L23.9373 18.6493C23.9373 18.6493 23.9464 18.6448 23.9509 18.6402C23.9826 18.6267 24.0098 18.6131 24.037 18.5904C24.046 18.5814 24.0551 18.5768 24.0641 18.5678C24.0822 18.5497 24.1004 18.527 24.1185 18.4999C24.123 18.4908 24.1321 18.4817 24.1366 18.4682C24.1366 18.4682 24.1411 18.4591 24.1457 18.4546C24.1502 18.441 24.1502 18.4229 24.1547 18.4048C24.1592 18.3821 24.1683 18.3595 24.1683 18.3368C24.1683 18.3097 24.1683 18.287 24.1592 18.2644C24.1592 18.2508 24.1592 18.2327 24.1547 18.2191C24.1547 18.2191 24.1547 18.2145 24.1502 18.21C24.1411 18.1874 24.1275 18.1647 24.1139 18.1421C24.1049 18.1285 24.0958 18.1104 24.0822 18.0968C24.0687 18.0787 24.046 18.0696 24.0324 18.056C24.0143 18.0425 23.9962 18.0289 23.9781 18.0198C23.9781 18.0198 23.9736 18.0153 23.969 18.0108L19.1323 16.0272C19.1142 16.0181 19.0916 16.0181 19.0735 16.0136C19.0508 16.0091 19.0282 16 19.0055 16C18.9603 16 18.9195 16.0091 18.8787 16.0272C18.8516 16.0362 18.8289 16.0589 18.8063 16.0725C18.7927 16.0815 18.7791 16.086 18.77 16.0996C18.7383 16.1313 18.7157 16.1676 18.6976 16.2083C18.6885 16.231 18.6885 16.2581 18.684 16.2808C18.684 16.2989 18.6704 16.317 18.6704 16.3351V22.6482C18.6523 22.6889 18.6432 22.7297 18.6432 22.7795C18.6432 22.8293 18.6523 22.8701 18.6704 22.9108V24.7404C18.6704 24.9261 18.8244 25.0801 19.0101 25.0801C19.0282 25.0801 19.0463 25.071 19.0644 25.071C19.0825 25.071 19.0961 25.0801 19.1188 25.0801H23.6701V27.8834C23.6701 28.0691 23.8241 28.223 24.0098 28.223C24.1955 28.223 24.3494 28.0691 24.3494 27.8834V25.0801H31.1471C31.2558 25.0801 31.3599 25.0846 31.4641 25.0892V27.2629C31.4641 27.4486 31.6181 27.6026 31.8037 27.6026C31.9894 27.6026 32.1434 27.4486 32.1434 27.2629V25.1073C34.4395 25.216 36.5589 25.687 38.2345 26.407V28.2683C38.2345 28.454 38.3885 28.608 38.5742 28.608C38.7599 28.608 38.9138 28.454 38.9138 28.2683V26.724C40.431 27.4984 41.4862 28.4948 41.8258 29.6134C41.8711 29.7583 42.007 29.8534 42.1519 29.8534C42.1836 29.8534 42.2198 29.8489 42.2515 29.8398C42.4327 29.7855 42.5323 29.5952 42.4779 29.4141C41.5994 26.5202 36.8623 24.4144 31.2059 24.4008C31.2059 24.4008 31.2059 24.4008 31.2014 24.4008H28.0449C28.303 24.0611 28.4751 23.6173 28.534 23.1237L32.2204 23.1916H32.2249C32.2702 23.1916 32.3155 23.1826 32.3562 23.1644C32.3698 23.1599 32.3834 23.1463 32.397 23.1373C32.4196 23.1237 32.4468 23.1101 32.4649 23.092C32.4785 23.0784 32.483 23.0603 32.4966 23.0467C32.5102 23.0286 32.5283 23.0059 32.5374 22.9833C32.5464 22.9652 32.5464 22.9471 32.551 22.929C32.5555 22.9063 32.5646 22.8837 32.5691 22.8565C32.5691 22.2361 32.3789 21.67 32.0664 21.2579C39.969 21.5477 46.2504 25.5284 46.2504 30.3832C46.2504 31.5335 45.8971 32.6476 45.2042 33.7119C44.4389 32.7789 43.4516 31.9321 42.2515 31.1984C39.2807 29.3688 35.3361 28.3634 31.138 28.3634C25.6492 28.3634 21.9492 29.3507 19.4901 31.4656C18.6614 32.1812 18.204 33.3496 18.2945 34.527C18.3896 35.7181 19.0282 36.7642 20.0517 37.3982C21.1295 38.0549 22.3477 38.6074 23.6747 39.0512V40.8763C23.6747 41.062 23.8286 41.216 24.0143 41.216C24.2 41.216 24.354 41.062 24.354 40.8763V39.2641C26.4779 39.8936 28.7559 40.2151 31.138 40.2151C31.2512 40.2151 31.3599 40.2106 31.4686 40.2061V42.1398C31.4686 42.3255 31.6226 42.4795 31.8083 42.4795C31.9939 42.4795 32.1479 42.3255 32.1479 42.1398V40.1879C34.29 40.1064 36.3506 39.7622 38.2391 39.169V40.1291C38.2391 40.3147 38.393 40.4687 38.5787 40.4687C38.7644 40.4687 38.9184 40.3147 38.9184 40.1291V38.9335C39.4346 38.7523 39.9419 38.5576 40.4264 38.3402C40.5985 38.2632 40.671 38.064 40.594 37.8919C40.517 37.7198 40.3177 37.6428 40.1457 37.7198C37.5235 38.9018 34.4078 39.5267 31.138 39.5267C28.6608 39.5267 26.2968 39.1735 24.1185 38.4806C22.7508 38.0459 21.5054 37.4843 20.4094 36.814C19.5626 36.2887 19.0508 35.4554 18.9738 34.4682C18.8969 33.5081 19.2682 32.5525 19.9339 31.9774C22.2617 29.9757 25.8213 29.0427 31.138 29.0427C35.2093 29.0427 39.0316 30.0119 41.8937 31.7781C43.1754 32.5661 44.2034 33.4764 44.9461 34.4908C45.8111 35.6547 46.2458 36.8956 46.2458 38.1862C46.2458 43.2267 39.4663 47.3297 31.1335 47.3297C31.1199 47.3297 31.1063 47.3343 31.0927 47.3388C31.0791 47.3388 31.0655 47.3297 31.052 47.3297H21.9537C22.2119 46.9901 22.384 46.5417 22.4428 46.0481H28.6381C28.6381 46.0481 28.6382 46.0481 28.6427 46.0481H32.2068C32.3925 46.0481 32.5464 45.8941 32.5464 45.7085C32.5464 45.0563 32.3336 44.4721 32.003 44.0509C37.9537 43.7158 42.6093 41.2024 42.6093 38.1862C42.6093 37.7696 42.5278 37.3575 42.3738 36.9635C41.9345 35.8313 40.8793 34.8033 39.3305 33.9881C37.1748 32.8423 34.2628 32.2083 31.1335 32.2083C28.5883 32.2083 26.1881 32.625 24.1909 33.413C24.0188 33.4809 23.9328 33.6802 24.0007 33.8522C24.0687 34.0289 24.2679 34.1149 24.44 34.0425C26.3602 33.2862 28.6744 32.8876 31.1335 32.8876C31.2422 32.8876 31.3463 32.8922 31.4505 32.8967V34.6267C31.4505 34.8123 31.6045 34.9663 31.7901 34.9663C31.9758 34.9663 32.1298 34.8123 32.1298 34.6267V32.9148C34.7429 33.0371 37.2065 33.6303 39.0089 34.5859C40.4128 35.3241 41.3548 36.2344 41.7352 37.2126C41.862 37.5296 41.9254 37.8511 41.9254 38.1817C41.9254 40.9805 36.8216 43.3716 30.7848 43.4079C30.35 43.4079 29.9334 43.6162 29.6118 43.9921C29.4896 44.137 29.5077 44.3498 29.6526 44.4721C29.793 44.5944 30.0104 44.5763 30.1326 44.4314C30.2685 44.2729 30.4904 44.0826 30.7938 44.0826C31.301 44.0826 31.7403 44.6397 31.8445 45.3643H29.3809C29.3809 45.3643 29.3809 45.3643 29.3763 45.3643H22.1349C21.9492 45.3643 21.7952 45.5183 21.7952 45.7039C21.7952 46.5825 21.2971 47.3252 20.7083 47.3252C20.1966 47.3252 19.7573 46.7682 19.6486 46.0436H20.4729C20.6585 46.0436 20.8125 45.8896 20.8125 45.7039C20.8125 45.5183 20.6585 45.3643 20.4729 45.3643H19.4675C19.4358 45.3643 19.4041 45.3733 19.3769 45.3824C19.3452 45.3733 19.318 45.3643 19.2863 45.3643C19.1006 45.3643 18.9467 45.5183 18.9467 45.7039C18.9467 46.9584 19.7211 47.9774 20.6812 48C20.6902 48 20.6993 48.0045 20.7083 48.0045H31.0474C31.0474 48.0045 31.0746 48 31.0882 47.9955C31.1018 47.9955 31.1154 48.0045 31.129 48.0045C39.8377 48.0045 46.9206 43.5981 46.9206 38.1817C46.9206 36.8186 46.4813 35.5098 45.6254 34.2825C46.4813 33.0461 46.9206 31.7373 46.9206 30.3787L46.9116 30.3742ZM19.3407 16.8469L22.8595 18.3006L19.3407 19.4735V16.8469ZM30.7893 21.2307C31.2965 21.2307 31.7313 21.7877 31.84 22.5033L29.7341 22.467C29.8383 21.7605 30.273 21.2307 30.7893 21.2307Z" fill="white"/>
<path d="M36.296 34.7219C34.7834 35.4057 32.9855 35.7635 31.0925 35.7635C29.6614 35.7635 28.2938 35.5597 27.0393 35.1566C26.8582 35.0978 26.668 35.1974 26.6136 35.3786C26.5547 35.5552 26.6544 35.7499 26.8355 35.8043C28.1624 36.2254 29.5935 36.4428 31.0971 36.4428C33.0852 36.4428 34.9782 36.0624 36.5813 35.3378C36.7534 35.2608 36.8259 35.0615 36.7489 34.8895C36.6719 34.7174 36.4681 34.6404 36.3006 34.7174L36.296 34.7219Z" fill="white"/>
<path d="M20.278 43.7068C20.3369 43.8291 20.4592 43.9061 20.586 43.9061C20.6358 43.9061 20.6811 43.897 20.7264 43.8744C20.8985 43.7974 20.9709 43.5936 20.8939 43.426C20.7671 43.1498 20.4546 42.6335 19.8206 42.3119C19.1775 41.9859 18.5707 42.0493 18.2673 42.1127C18.0861 42.1534 17.9684 42.3346 18.0046 42.5157C18.0454 42.7014 18.2265 42.8146 18.4077 42.7784C18.5797 42.7422 19.0371 42.6788 19.5127 42.9188C19.9837 43.1543 20.2056 43.5528 20.278 43.7113V43.7068Z" fill="white"/>
<path d="M21.2335 43.0273C21.2335 43.0273 21.2561 43.0273 21.2697 43.0273C21.4418 43.0273 21.5913 42.8959 21.6094 42.7193C21.6411 42.4159 21.632 41.8136 21.2471 41.2158C20.8576 40.6089 20.3051 40.3553 20.0062 40.2557C19.8296 40.1968 19.6349 40.2919 19.576 40.4731C19.5171 40.6497 19.6122 40.8444 19.7934 40.9033C19.9609 40.9576 20.3866 41.1342 20.6719 41.5826C20.9482 42.0083 20.9527 42.4385 20.9301 42.6514C20.912 42.837 21.0478 43.0046 21.2335 43.0227V43.0273Z" fill="white"/>
<path d="M23.548 44.0512C23.6658 44.0512 23.779 43.9878 23.8424 43.8791C23.9284 43.7252 24.1911 43.3448 24.6847 43.1545C25.1738 42.9643 25.6176 43.064 25.7852 43.1183C25.9664 43.1727 26.1566 43.073 26.2109 42.8964C26.2653 42.7153 26.1656 42.5251 25.989 42.4707C25.6946 42.3801 25.1059 42.2669 24.4402 42.5251C23.7654 42.7877 23.4076 43.2768 23.2537 43.5485C23.1585 43.7116 23.2174 43.9199 23.3805 44.0105C23.4348 44.0422 23.4937 44.0558 23.548 44.0558V44.0512Z" fill="white"/>
</g>
<defs>
<clipPath id="clip0_2002_5727">
<rect width="28.9114" height="32" fill="white" transform="translate(18 16)"/>
</clipPath>
</defs>
</svg>
