<svg width="64" height="64" viewBox="0 0 64 64" fill="none" xmlns="http://www.w3.org/2000/svg">
<circle cx="32" cy="32" r="32" fill="#0093D0"/>
<g clip-path="url(#clip0_2002_5762)">
<path d="M38.3606 34.7656H38.2511C35.5228 34.7656 33.2023 32.8151 32.7332 30.1272C32.5899 29.305 31.8798 28.7096 31.0459 28.7096C30.2121 28.7096 29.5033 29.3063 29.3599 30.1272C28.8909 32.8151 26.5704 34.7656 23.842 34.7656H23.6023C20.513 34.7656 18.001 32.2535 18.001 29.1643V27.6477C18.001 25.675 19.4811 24.0307 21.4433 23.8236C27.816 23.1526 34.2772 23.1526 40.6498 23.8236C42.612 24.0307 44.0922 25.6737 44.0922 27.6477V29.0353C44.0922 32.1962 41.5215 34.7669 38.3606 34.7669V34.7656ZM31.0459 27.6933C32.3749 27.6933 33.5059 28.6431 33.7339 29.9526C34.1182 32.1519 36.0179 33.7493 38.2498 33.7493H38.3593C40.9586 33.7493 43.0746 31.6346 43.0746 29.034V27.6464C43.0746 26.1949 41.9866 24.9858 40.543 24.8333C34.242 24.1688 27.8511 24.1688 21.5489 24.8333C20.1052 24.9858 19.0173 26.1949 19.0173 27.6464V29.163C19.0173 31.6907 21.0746 33.748 23.6023 33.748H23.842C26.0752 33.748 27.9749 32.1519 28.358 29.9513C28.586 28.6418 29.7169 27.692 31.0459 27.692V27.6933Z" fill="white"/>
<path d="M20.5628 29.6726C20.2827 29.6726 20.0547 29.4446 20.0547 29.1644V27.7364C20.0547 26.7579 20.7882 25.9423 21.7628 25.8393C22.4338 25.769 23.1153 25.7051 23.7876 25.6504C24.0651 25.6257 24.3127 25.8354 24.3348 26.1156C24.357 26.3957 24.1485 26.6407 23.8697 26.6628C23.2039 26.7162 22.5316 26.7788 21.8684 26.8491C21.4136 26.8973 21.071 27.2778 21.071 27.7351V29.1631C21.071 29.4433 20.843 29.6713 20.5628 29.6713V29.6726Z" fill="white"/>
<path d="M43.9157 20.5876H42.3939C42.1138 20.5876 41.8857 20.3596 41.8857 20.0794C41.8857 19.7993 42.1138 19.5713 42.3939 19.5713H43.9157C44.1958 19.5713 44.4239 19.7993 44.4239 20.0794C44.4239 20.3596 44.1958 20.5876 43.9157 20.5876Z" fill="white"/>
<path d="M37.4964 48.001C32.8462 48.001 29.0625 44.2173 29.0625 39.5671V38.0492C29.0625 37.7691 29.2905 37.541 29.5706 37.541H32.5987C32.8788 37.541 33.1068 37.7691 33.1068 38.0492V39.5671C33.1068 41.9879 35.0755 43.9567 37.4964 43.9567C39.9172 43.9567 41.886 41.9879 41.886 39.5671V34.9339C41.886 34.6537 42.114 34.4257 42.3941 34.4257C42.6742 34.4257 42.9022 34.6537 42.9022 34.9339V39.5671C42.9022 42.5482 40.4775 44.973 37.4964 44.973C34.5153 44.973 32.0905 42.5482 32.0905 39.5671V38.5573H30.0788V39.5671C30.0788 43.657 33.4065 46.9847 37.4964 46.9847C41.5863 46.9847 44.914 43.657 44.914 39.5671V17.0173H42.9022V23.0212C42.9022 23.3013 42.6742 23.5293 42.3941 23.5293C42.114 23.5293 41.886 23.3013 41.886 23.0212V16.5091C41.886 16.229 42.114 16.001 42.3941 16.001H45.4221C45.7022 16.001 45.9303 16.229 45.9303 16.5091V39.5671C45.9303 44.2173 42.1465 48.001 37.4964 48.001Z" fill="white"/>
<path d="M34.1495 38.5563H28.0804C27.8003 38.5563 27.5723 38.3283 27.5723 38.0482C27.5723 37.7681 27.8003 37.54 28.0804 37.54H34.1495C34.4296 37.54 34.6576 37.7681 34.6576 38.0482C34.6576 38.3283 34.4296 38.5563 34.1495 38.5563Z" fill="white"/>
<path d="M32.5035 36.7187C32.2234 36.7187 31.9954 36.4906 31.9954 36.2105V35.1734C31.3791 35.404 30.6964 35.404 30.0788 35.1721V36.2105C30.0788 36.4906 29.8508 36.7187 29.5706 36.7187C29.2905 36.7187 29.0625 36.4906 29.0625 36.2105V34.2874C29.0625 34.0919 29.1732 33.9147 29.3491 33.8301C29.525 33.7454 29.7335 33.7675 29.886 33.8887L29.9785 33.9617C30.626 34.4724 31.5472 34.4489 32.1674 33.9043C32.3172 33.7727 32.5296 33.7415 32.712 33.8235C32.8944 33.9056 33.0104 34.0867 33.0104 34.2861V36.2092C33.0104 36.4893 32.7824 36.7174 32.5022 36.7174L32.5035 36.7187Z" fill="white"/>
</g>
<defs>
<clipPath id="clip0_2002_5762">
<rect width="27.9296" height="32" fill="white" transform="translate(18 16)"/>
</clipPath>
</defs>
</svg>
